<?xml version="1.0" encoding="utf-8" standalone="no"?>
<!DOCTYPE svg PUBLIC "-//W3C//DTD SVG 1.1//EN"
  "http://www.w3.org/Graphics/SVG/1.1/DTD/svg11.dtd">
<svg xmlns:xlink="http://www.w3.org/1999/xlink" width="712.062812pt" height="568.560313pt" viewBox="0 0 712.062812 568.560313" xmlns="http://www.w3.org/2000/svg" version="1.1">
 <metadata>
  <rdf:RDF xmlns:dc="http://purl.org/dc/elements/1.1/" xmlns:cc="http://creativecommons.org/ns#" xmlns:rdf="http://www.w3.org/1999/02/22-rdf-syntax-ns#">
   <cc:Work>
    <dc:type rdf:resource="http://purl.org/dc/dcmitype/StillImage"/>
    <dc:date>2026-07-17T20:15:37.816756</dc:date>
    <dc:format>image/svg+xml</dc:format>
    <dc:creator>
     <cc:Agent>
      <dc:title>Matplotlib v3.11.0, https://matplotlib.org/</dc:title>
     </cc:Agent>
    </dc:creator>
   </cc:Work>
  </rdf:RDF>
 </metadata>
 <defs>
  <style type="text/css">*{stroke-linejoin: round; stroke-linecap: butt}</style>
 </defs>
 <g id="figure_1">
  <g id="patch_1">
   <path d="M 0 568.560313 
L 712.062812 568.560313 
L 712.062812 0 
L 0 0 
z
" style="fill: #ffffff"/>
  </g>
  <g id="axes_1">
   <g id="patch_2">
    <path d="M 51.305625 269.732832 
L 704.862813 269.732832 
L 704.862813 42.043008 
L 51.305625 42.043008 
z
" style="fill: #ffffff"/>
   </g>
   <g id="FillBetweenPolyCollection_1">
    <defs>
     <path id="m800c536af3" d="M 96.054362 -459.340386 
L 96.054362 -375.240207 
L 133.658343 -378.825874 
L 171.262324 -378.662889 
L 208.866305 -379.2605 
L 246.470286 -374.370955 
L 284.074267 -392.761078 
L 321.678247 -363.505299 
L 359.282228 -343.132193 
L 396.886209 -360.109781 
L 434.49019 -339.356378 
L 472.094171 -328.572214 
L 509.698152 -339.356378 
L 547.302133 -345.332489 
L 584.906114 -347.994574 
L 622.510094 -336.341158 
L 660.114075 -354.45964 
L 660.114075 -512.90807 
L 660.114075 -512.90807 
L 622.510094 -478.952895 
L 584.906114 -490.280341 
L 547.302133 -484.331395 
L 509.698152 -503.210472 
L 472.094171 -467.625448 
L 434.49019 -478.952895 
L 396.886209 -497.28869 
L 359.282228 -482.049607 
L 321.678247 -512.90807 
L 284.074267 -516.167767 
L 246.470286 -476.372302 
L 208.866305 -469.961565 
L 171.262324 -459.666355 
L 133.658343 -460.100982 
L 96.054362 -459.340386 
z
" style="stroke: #e63946; stroke-opacity: 0.15"/>
    </defs>
    <g clip-path="url(#pc789557f9d)">
     <use xlink:href="#m800c536af3" x="0" y="568.560313" style="fill: #e63946; fill-opacity: 0.15; stroke: #e63946; stroke-opacity: 0.15"/>
    </g>
   </g>
   <g id="FillBetweenPolyCollection_2">
    <defs>
     <path id="me6d67d06ec" d="M 96.054362 -431.578634 
L 96.054362 -405.908522 
L 133.658343 -406.397476 
L 171.262324 -403.789719 
L 208.866305 -402.322855 
L 246.470286 -403.490913 
L 284.074267 -404.658971 
L 321.678247 -399.715098 
L 359.282228 -397.650623 
L 396.886209 -404.414494 
L 434.49019 -399.497785 
L 472.094171 -400.367037 
L 509.698152 -400.367037 
L 547.302133 -398.411219 
L 584.906114 -400.149724 
L 622.510094 -402.404348 
L 660.114075 -401.23629 
L 660.114075 -426.444612 
L 660.114075 -426.444612 
L 622.510094 -428.563415 
L 584.906114 -425.629688 
L 547.302133 -423.429392 
L 509.698152 -425.358046 
L 472.094171 -425.765508 
L 434.49019 -425.059241 
L 396.886209 -429.731473 
L 359.282228 -422.940438 
L 321.678247 -424.841927 
L 284.074267 -430.329084 
L 246.470286 -429.948786 
L 208.866305 -428.590579 
L 171.262324 -429.840129 
L 133.658343 -432.33923 
L 96.054362 -431.578634 
z
" style="stroke: #457b9d; stroke-opacity: 0.15"/>
    </defs>
    <g clip-path="url(#pc789557f9d)">
     <use xlink:href="#me6d67d06ec" x="0" y="568.560313" style="fill: #457b9d; fill-opacity: 0.15; stroke: #457b9d; stroke-opacity: 0.15"/>
    </g>
   </g>
   <g id="matplotlib.axis_1">
    <g id="xtick_1">
     <g id="line2d_1">
      <path d="M 96.054362 269.732832 
L 96.054362 42.043008 
" clip-path="url(#pc789557f9d)" style="fill: none; stroke: #b0b0b0; stroke-opacity: 0.3; stroke-width: 0.8; stroke-linecap: square"/>
     </g>
     <g id="line2d_2">
      <defs>
       <path id="m646fedad69" d="M 0 0 
L 0 3.5 
" style="stroke: #000000; stroke-width: 0.8"/>
      </defs>
      <g>
       <use xlink:href="#m646fedad69" x="96.054362" y="269.732832" style="stroke: #000000; stroke-width: 0.8"/>
      </g>
     </g>
    </g>
    <g id="xtick_2">
     <g id="line2d_3">
      <path d="M 190.064314 269.732832 
L 190.064314 42.043008 
" clip-path="url(#pc789557f9d)" style="fill: none; stroke: #b0b0b0; stroke-opacity: 0.3; stroke-width: 0.8; stroke-linecap: square"/>
     </g>
     <g id="line2d_4">
      <g>
       <use xlink:href="#m646fedad69" x="190.064314" y="269.732832" style="stroke: #000000; stroke-width: 0.8"/>
      </g>
     </g>
    </g>
    <g id="xtick_3">
     <g id="line2d_5">
      <path d="M 284.074267 269.732832 
L 284.074267 42.043008 
" clip-path="url(#pc789557f9d)" style="fill: none; stroke: #b0b0b0; stroke-opacity: 0.3; stroke-width: 0.8; stroke-linecap: square"/>
     </g>
     <g id="line2d_6">
      <g>
       <use xlink:href="#m646fedad69" x="284.074267" y="269.732832" style="stroke: #000000; stroke-width: 0.8"/>
      </g>
     </g>
    </g>
    <g id="xtick_4">
     <g id="line2d_7">
      <path d="M 378.084219 269.732832 
L 378.084219 42.043008 
" clip-path="url(#pc789557f9d)" style="fill: none; stroke: #b0b0b0; stroke-opacity: 0.3; stroke-width: 0.8; stroke-linecap: square"/>
     </g>
     <g id="line2d_8">
      <g>
       <use xlink:href="#m646fedad69" x="378.084219" y="269.732832" style="stroke: #000000; stroke-width: 0.8"/>
      </g>
     </g>
    </g>
    <g id="xtick_5">
     <g id="line2d_9">
      <path d="M 472.094171 269.732832 
L 472.094171 42.043008 
" clip-path="url(#pc789557f9d)" style="fill: none; stroke: #b0b0b0; stroke-opacity: 0.3; stroke-width: 0.8; stroke-linecap: square"/>
     </g>
     <g id="line2d_10">
      <g>
       <use xlink:href="#m646fedad69" x="472.094171" y="269.732832" style="stroke: #000000; stroke-width: 0.8"/>
      </g>
     </g>
    </g>
    <g id="xtick_6">
     <g id="line2d_11">
      <path d="M 566.104123 269.732832 
L 566.104123 42.043008 
" clip-path="url(#pc789557f9d)" style="fill: none; stroke: #b0b0b0; stroke-opacity: 0.3; stroke-width: 0.8; stroke-linecap: square"/>
     </g>
     <g id="line2d_12">
      <g>
       <use xlink:href="#m646fedad69" x="566.104123" y="269.732832" style="stroke: #000000; stroke-width: 0.8"/>
      </g>
     </g>
    </g>
    <g id="xtick_7">
     <g id="line2d_13">
      <path d="M 660.114075 269.732832 
L 660.114075 42.043008 
" clip-path="url(#pc789557f9d)" style="fill: none; stroke: #b0b0b0; stroke-opacity: 0.3; stroke-width: 0.8; stroke-linecap: square"/>
     </g>
     <g id="line2d_14">
      <g>
       <use xlink:href="#m646fedad69" x="660.114075" y="269.732832" style="stroke: #000000; stroke-width: 0.8"/>
      </g>
     </g>
    </g>
   </g>
   <g id="matplotlib.axis_2">
    <g id="ytick_1">
     <g id="line2d_15">
      <path d="M 51.305625 259.383295 
L 704.862813 259.383295 
" clip-path="url(#pc789557f9d)" style="fill: none; stroke: #b0b0b0; stroke-opacity: 0.3; stroke-width: 0.8; stroke-linecap: square"/>
     </g>
     <g id="line2d_16">
      <defs>
       <path id="md530ac4fa4" d="M 0 0 
L -3.5 0 
" style="stroke: #000000; stroke-width: 0.8"/>
      </defs>
      <g>
       <use xlink:href="#md530ac4fa4" x="51.305625" y="259.383295" style="stroke: #000000; stroke-width: 0.8"/>
      </g>
     </g>
     <g id="text_1">
      <!-- 0 -->
      <g transform="translate(37.943125 263.182123) scale(0.1 -0.1)">
       <defs>
        <path id="DejaVuSans-13" d="M 2034 4250 
Q 1547 4250 1301 3770 
Q 1056 3291 1056 2328 
Q 1056 1369 1301 889 
Q 1547 409 2034 409 
Q 2525 409 2770 889 
Q 3016 1369 3016 2328 
Q 3016 3291 2770 3770 
Q 2525 4250 2034 4250 
z
M 2034 4750 
Q 2819 4750 3233 4129 
Q 3647 3509 3647 2328 
Q 3647 1150 3233 529 
Q 2819 -91 2034 -91 
Q 1250 -91 836 529 
Q 422 1150 422 2328 
Q 422 3509 836 4129 
Q 1250 4750 2034 4750 
z
" transform="scale(0.015625)"/>
       </defs>
       <use xlink:href="#DejaVuSans-13"/>
      </g>
     </g>
    </g>
    <g id="ytick_2">
     <g id="line2d_17">
      <path d="M 51.305625 232.219154 
L 704.862813 232.219154 
" clip-path="url(#pc789557f9d)" style="fill: none; stroke: #b0b0b0; stroke-opacity: 0.3; stroke-width: 0.8; stroke-linecap: square"/>
     </g>
     <g id="line2d_18">
      <g>
       <use xlink:href="#md530ac4fa4" x="51.305625" y="232.219154" style="stroke: #000000; stroke-width: 0.8"/>
      </g>
     </g>
     <g id="text_2">
      <!-- 10 -->
      <g transform="translate(31.580625 236.017982) scale(0.1 -0.1)">
       <defs>
        <path id="DejaVuSans-14" d="M 794 531 
L 1825 531 
L 1825 4091 
L 703 3866 
L 703 4441 
L 1819 4666 
L 2450 4666 
L 2450 531 
L 3481 531 
L 3481 0 
L 794 0 
L 794 531 
z
" transform="scale(0.015625)"/>
       </defs>
       <use xlink:href="#DejaVuSans-14"/>
       <use xlink:href="#DejaVuSans-13" transform="translate(63.625 0)"/>
      </g>
     </g>
    </g>
    <g id="ytick_3">
     <g id="line2d_19">
      <path d="M 51.305625 205.055014 
L 704.862813 205.055014 
" clip-path="url(#pc789557f9d)" style="fill: none; stroke: #b0b0b0; stroke-opacity: 0.3; stroke-width: 0.8; stroke-linecap: square"/>
     </g>
     <g id="line2d_20">
      <g>
       <use xlink:href="#md530ac4fa4" x="51.305625" y="205.055014" style="stroke: #000000; stroke-width: 0.8"/>
      </g>
     </g>
     <g id="text_3">
      <!-- 20 -->
      <g transform="translate(31.580625 208.853842) scale(0.1 -0.1)">
       <defs>
        <path id="DejaVuSans-15" d="M 1228 531 
L 3431 531 
L 3431 0 
L 469 0 
L 469 531 
Q 828 903 1448 1529 
Q 2069 2156 2228 2338 
Q 2531 2678 2651 2914 
Q 2772 3150 2772 3378 
Q 2772 3750 2511 3984 
Q 2250 4219 1831 4219 
Q 1534 4219 1204 4116 
Q 875 4013 500 3803 
L 500 4441 
Q 881 4594 1212 4672 
Q 1544 4750 1819 4750 
Q 2544 4750 2975 4387 
Q 3406 4025 3406 3419 
Q 3406 3131 3298 2873 
Q 3191 2616 2906 2266 
Q 2828 2175 2409 1742 
Q 1991 1309 1228 531 
z
" transform="scale(0.015625)"/>
       </defs>
       <use xlink:href="#DejaVuSans-15"/>
       <use xlink:href="#DejaVuSans-13" transform="translate(63.625 0)"/>
      </g>
     </g>
    </g>
    <g id="ytick_4">
     <g id="line2d_21">
      <path d="M 51.305625 177.890874 
L 704.862813 177.890874 
" clip-path="url(#pc789557f9d)" style="fill: none; stroke: #b0b0b0; stroke-opacity: 0.3; stroke-width: 0.8; stroke-linecap: square"/>
     </g>
     <g id="line2d_22">
      <g>
       <use xlink:href="#md530ac4fa4" x="51.305625" y="177.890874" style="stroke: #000000; stroke-width: 0.8"/>
      </g>
     </g>
     <g id="text_4">
      <!-- 30 -->
      <g transform="translate(31.580625 181.689702) scale(0.1 -0.1)">
       <defs>
        <path id="DejaVuSans-16" d="M 2597 2516 
Q 3050 2419 3304 2112 
Q 3559 1806 3559 1356 
Q 3559 666 3084 287 
Q 2609 -91 1734 -91 
Q 1441 -91 1130 -33 
Q 819 25 488 141 
L 488 750 
Q 750 597 1062 519 
Q 1375 441 1716 441 
Q 2309 441 2620 675 
Q 2931 909 2931 1356 
Q 2931 1769 2642 2001 
Q 2353 2234 1838 2234 
L 1294 2234 
L 1294 2753 
L 1863 2753 
Q 2328 2753 2575 2939 
Q 2822 3125 2822 3475 
Q 2822 3834 2567 4026 
Q 2313 4219 1838 4219 
Q 1578 4219 1281 4162 
Q 984 4106 628 3988 
L 628 4550 
Q 988 4650 1302 4700 
Q 1616 4750 1894 4750 
Q 2613 4750 3031 4423 
Q 3450 4097 3450 3541 
Q 3450 3153 3228 2886 
Q 3006 2619 2597 2516 
z
" transform="scale(0.015625)"/>
       </defs>
       <use xlink:href="#DejaVuSans-16"/>
       <use xlink:href="#DejaVuSans-13" transform="translate(63.625 0)"/>
      </g>
     </g>
    </g>
    <g id="ytick_5">
     <g id="line2d_23">
      <path d="M 51.305625 150.726733 
L 704.862813 150.726733 
" clip-path="url(#pc789557f9d)" style="fill: none; stroke: #b0b0b0; stroke-opacity: 0.3; stroke-width: 0.8; stroke-linecap: square"/>
     </g>
     <g id="line2d_24">
      <g>
       <use xlink:href="#md530ac4fa4" x="51.305625" y="150.726733" style="stroke: #000000; stroke-width: 0.8"/>
      </g>
     </g>
     <g id="text_5">
      <!-- 40 -->
      <g transform="translate(31.580625 154.525561) scale(0.1 -0.1)">
       <defs>
        <path id="DejaVuSans-17" d="M 2419 4116 
L 825 1625 
L 2419 1625 
L 2419 4116 
z
M 2253 4666 
L 3047 4666 
L 3047 1625 
L 3713 1625 
L 3713 1100 
L 3047 1100 
L 3047 0 
L 2419 0 
L 2419 1100 
L 313 1100 
L 313 1709 
L 2253 4666 
z
" transform="scale(0.015625)"/>
       </defs>
       <use xlink:href="#DejaVuSans-17"/>
       <use xlink:href="#DejaVuSans-13" transform="translate(63.625 0)"/>
      </g>
     </g>
    </g>
    <g id="ytick_6">
     <g id="line2d_25">
      <path d="M 51.305625 123.562593 
L 704.862813 123.562593 
" clip-path="url(#pc789557f9d)" style="fill: none; stroke: #b0b0b0; stroke-opacity: 0.3; stroke-width: 0.8; stroke-linecap: square"/>
     </g>
     <g id="line2d_26">
      <g>
       <use xlink:href="#md530ac4fa4" x="51.305625" y="123.562593" style="stroke: #000000; stroke-width: 0.8"/>
      </g>
     </g>
     <g id="text_6">
      <!-- 50 -->
      <g transform="translate(31.580625 127.361421) scale(0.1 -0.1)">
       <defs>
        <path id="DejaVuSans-18" d="M 691 4666 
L 3169 4666 
L 3169 4134 
L 1269 4134 
L 1269 2991 
Q 1406 3038 1543 3061 
Q 1681 3084 1819 3084 
Q 2600 3084 3056 2656 
Q 3513 2228 3513 1497 
Q 3513 744 3044 326 
Q 2575 -91 1722 -91 
Q 1428 -91 1123 -41 
Q 819 9 494 109 
L 494 744 
Q 775 591 1075 516 
Q 1375 441 1709 441 
Q 2250 441 2565 725 
Q 2881 1009 2881 1497 
Q 2881 1984 2565 2268 
Q 2250 2553 1709 2553 
Q 1456 2553 1204 2497 
Q 953 2441 691 2322 
L 691 4666 
z
" transform="scale(0.015625)"/>
       </defs>
       <use xlink:href="#DejaVuSans-18"/>
       <use xlink:href="#DejaVuSans-13" transform="translate(63.625 0)"/>
      </g>
     </g>
    </g>
    <g id="ytick_7">
     <g id="line2d_27">
      <path d="M 51.305625 96.398453 
L 704.862813 96.398453 
" clip-path="url(#pc789557f9d)" style="fill: none; stroke: #b0b0b0; stroke-opacity: 0.3; stroke-width: 0.8; stroke-linecap: square"/>
     </g>
     <g id="line2d_28">
      <g>
       <use xlink:href="#md530ac4fa4" x="51.305625" y="96.398453" style="stroke: #000000; stroke-width: 0.8"/>
      </g>
     </g>
     <g id="text_7">
      <!-- 60 -->
      <g transform="translate(31.580625 100.197281) scale(0.1 -0.1)">
       <defs>
        <path id="DejaVuSans-19" d="M 2113 2584 
Q 1688 2584 1439 2293 
Q 1191 2003 1191 1497 
Q 1191 994 1439 701 
Q 1688 409 2113 409 
Q 2538 409 2786 701 
Q 3034 994 3034 1497 
Q 3034 2003 2786 2293 
Q 2538 2584 2113 2584 
z
M 3366 4563 
L 3366 3988 
Q 3128 4100 2886 4159 
Q 2644 4219 2406 4219 
Q 1781 4219 1451 3797 
Q 1122 3375 1075 2522 
Q 1259 2794 1537 2939 
Q 1816 3084 2150 3084 
Q 2853 3084 3261 2657 
Q 3669 2231 3669 1497 
Q 3669 778 3244 343 
Q 2819 -91 2113 -91 
Q 1303 -91 875 529 
Q 447 1150 447 2328 
Q 447 3434 972 4092 
Q 1497 4750 2381 4750 
Q 2619 4750 2861 4703 
Q 3103 4656 3366 4563 
z
" transform="scale(0.015625)"/>
       </defs>
       <use xlink:href="#DejaVuSans-19"/>
       <use xlink:href="#DejaVuSans-13" transform="translate(63.625 0)"/>
      </g>
     </g>
    </g>
    <g id="ytick_8">
     <g id="line2d_29">
      <path d="M 51.305625 69.234312 
L 704.862813 69.234312 
" clip-path="url(#pc789557f9d)" style="fill: none; stroke: #b0b0b0; stroke-opacity: 0.3; stroke-width: 0.8; stroke-linecap: square"/>
     </g>
     <g id="line2d_30">
      <g>
       <use xlink:href="#md530ac4fa4" x="51.305625" y="69.234312" style="stroke: #000000; stroke-width: 0.8"/>
      </g>
     </g>
     <g id="text_8">
      <!-- 70 -->
      <g transform="translate(31.580625 73.03314) scale(0.1 -0.1)">
       <defs>
        <path id="DejaVuSans-1a" d="M 525 4666 
L 3525 4666 
L 3525 4397 
L 1831 0 
L 1172 0 
L 2766 4134 
L 525 4134 
L 525 4666 
z
" transform="scale(0.015625)"/>
       </defs>
       <use xlink:href="#DejaVuSans-1a"/>
       <use xlink:href="#DejaVuSans-13" transform="translate(63.625 0)"/>
      </g>
     </g>
    </g>
    <g id="ytick_9">
     <g id="line2d_31">
      <path d="M 51.305625 42.070172 
L 704.862813 42.070172 
" clip-path="url(#pc789557f9d)" style="fill: none; stroke: #b0b0b0; stroke-opacity: 0.3; stroke-width: 0.8; stroke-linecap: square"/>
     </g>
     <g id="line2d_32">
      <g>
       <use xlink:href="#md530ac4fa4" x="51.305625" y="42.070172" style="stroke: #000000; stroke-width: 0.8"/>
      </g>
     </g>
     <g id="text_9">
      <!-- 80 -->
      <g transform="translate(31.580625 45.869) scale(0.1 -0.1)">
       <defs>
        <path id="DejaVuSans-1b" d="M 2034 2216 
Q 1584 2216 1326 1975 
Q 1069 1734 1069 1313 
Q 1069 891 1326 650 
Q 1584 409 2034 409 
Q 2484 409 2743 651 
Q 3003 894 3003 1313 
Q 3003 1734 2745 1975 
Q 2488 2216 2034 2216 
z
M 1403 2484 
Q 997 2584 770 2862 
Q 544 3141 544 3541 
Q 544 4100 942 4425 
Q 1341 4750 2034 4750 
Q 2731 4750 3128 4425 
Q 3525 4100 3525 3541 
Q 3525 3141 3298 2862 
Q 3072 2584 2669 2484 
Q 3125 2378 3379 2068 
Q 3634 1759 3634 1313 
Q 3634 634 3220 271 
Q 2806 -91 2034 -91 
Q 1263 -91 848 271 
Q 434 634 434 1313 
Q 434 1759 690 2068 
Q 947 2378 1403 2484 
z
M 1172 3481 
Q 1172 3119 1398 2916 
Q 1625 2713 2034 2713 
Q 2441 2713 2670 2916 
Q 2900 3119 2900 3481 
Q 2900 3844 2670 4047 
Q 2441 4250 2034 4250 
Q 1625 4250 1398 4047 
Q 1172 3844 1172 3481 
z
" transform="scale(0.015625)"/>
       </defs>
       <use xlink:href="#DejaVuSans-1b"/>
       <use xlink:href="#DejaVuSans-13" transform="translate(63.625 0)"/>
      </g>
     </g>
    </g>
    <g id="text_10">
     <!-- Historical Win Percentage -->
     <g transform="translate(24.697812 232.829482) rotate(-90) scale(0.12 -0.12)">
      <defs>
       <path id="DejaVuSans-2b" d="M 628 4666 
L 1259 4666 
L 1259 2753 
L 3553 2753 
L 3553 4666 
L 4184 4666 
L 4184 0 
L 3553 0 
L 3553 2222 
L 1259 2222 
L 1259 0 
L 628 0 
L 628 4666 
z
" transform="scale(0.015625)"/>
       <path id="DejaVuSans-4c" d="M 603 3500 
L 1178 3500 
L 1178 0 
L 603 0 
L 603 3500 
z
M 603 4863 
L 1178 4863 
L 1178 4134 
L 603 4134 
L 603 4863 
z
" transform="scale(0.015625)"/>
       <path id="DejaVuSans-56" d="M 2834 3397 
L 2834 2853 
Q 2591 2978 2328 3040 
Q 2066 3103 1784 3103 
Q 1356 3103 1142 2972 
Q 928 2841 928 2578 
Q 928 2378 1081 2264 
Q 1234 2150 1697 2047 
L 1894 2003 
Q 2506 1872 2764 1633 
Q 3022 1394 3022 966 
Q 3022 478 2636 193 
Q 2250 -91 1575 -91 
Q 1294 -91 989 -36 
Q 684 19 347 128 
L 347 722 
Q 666 556 975 473 
Q 1284 391 1588 391 
Q 1994 391 2212 530 
Q 2431 669 2431 922 
Q 2431 1156 2273 1281 
Q 2116 1406 1581 1522 
L 1381 1569 
Q 847 1681 609 1914 
Q 372 2147 372 2553 
Q 372 3047 722 3315 
Q 1072 3584 1716 3584 
Q 2034 3584 2315 3537 
Q 2597 3491 2834 3397 
z
" transform="scale(0.015625)"/>
       <path id="DejaVuSans-57" d="M 1172 4494 
L 1172 3500 
L 2356 3500 
L 2356 3053 
L 1172 3053 
L 1172 1153 
Q 1172 725 1289 603 
Q 1406 481 1766 481 
L 2356 481 
L 2356 0 
L 1766 0 
Q 1100 0 847 248 
Q 594 497 594 1153 
L 594 3053 
L 172 3053 
L 172 3500 
L 594 3500 
L 594 4494 
L 1172 4494 
z
" transform="scale(0.015625)"/>
       <path id="DejaVuSans-52" d="M 1959 3097 
Q 1497 3097 1228 2736 
Q 959 2375 959 1747 
Q 959 1119 1226 758 
Q 1494 397 1959 397 
Q 2419 397 2687 759 
Q 2956 1122 2956 1747 
Q 2956 2369 2687 2733 
Q 2419 3097 1959 3097 
z
M 1959 3584 
Q 2709 3584 3137 3096 
Q 3566 2609 3566 1747 
Q 3566 888 3137 398 
Q 2709 -91 1959 -91 
Q 1206 -91 779 398 
Q 353 888 353 1747 
Q 353 2609 779 3096 
Q 1206 3584 1959 3584 
z
" transform="scale(0.015625)"/>
       <path id="DejaVuSans-55" d="M 2631 2963 
Q 2534 3019 2420 3045 
Q 2306 3072 2169 3072 
Q 1681 3072 1420 2755 
Q 1159 2438 1159 1844 
L 1159 0 
L 581 0 
L 581 3500 
L 1159 3500 
L 1159 2956 
Q 1341 3275 1631 3429 
Q 1922 3584 2338 3584 
Q 2397 3584 2469 3576 
Q 2541 3569 2628 3553 
L 2631 2963 
z
" transform="scale(0.015625)"/>
       <path id="DejaVuSans-46" d="M 3122 3366 
L 3122 2828 
Q 2878 2963 2633 3030 
Q 2388 3097 2138 3097 
Q 1578 3097 1268 2742 
Q 959 2388 959 1747 
Q 959 1106 1268 751 
Q 1578 397 2138 397 
Q 2388 397 2633 464 
Q 2878 531 3122 666 
L 3122 134 
Q 2881 22 2623 -34 
Q 2366 -91 2075 -91 
Q 1284 -91 818 406 
Q 353 903 353 1747 
Q 353 2603 823 3093 
Q 1294 3584 2113 3584 
Q 2378 3584 2631 3529 
Q 2884 3475 3122 3366 
z
" transform="scale(0.015625)"/>
       <path id="DejaVuSans-44" d="M 2194 1759 
Q 1497 1759 1228 1600 
Q 959 1441 959 1056 
Q 959 750 1161 570 
Q 1363 391 1709 391 
Q 2188 391 2477 730 
Q 2766 1069 2766 1631 
L 2766 1759 
L 2194 1759 
z
M 3341 1997 
L 3341 0 
L 2766 0 
L 2766 531 
Q 2569 213 2275 61 
Q 1981 -91 1556 -91 
Q 1019 -91 701 211 
Q 384 513 384 1019 
Q 384 1609 779 1909 
Q 1175 2209 1959 2209 
L 2766 2209 
L 2766 2266 
Q 2766 2663 2505 2880 
Q 2244 3097 1772 3097 
Q 1472 3097 1187 3025 
Q 903 2953 641 2809 
L 641 3341 
Q 956 3463 1253 3523 
Q 1550 3584 1831 3584 
Q 2591 3584 2966 3190 
Q 3341 2797 3341 1997 
z
" transform="scale(0.015625)"/>
       <path id="DejaVuSans-4f" d="M 603 4863 
L 1178 4863 
L 1178 0 
L 603 0 
L 603 4863 
z
" transform="scale(0.015625)"/>
       <path id="DejaVuSans-3" transform="scale(0.015625)"/>
       <path id="DejaVuSans-3a" d="M 213 4666 
L 850 4666 
L 1831 722 
L 2809 4666 
L 3519 4666 
L 4500 722 
L 5478 4666 
L 6119 4666 
L 4947 0 
L 4153 0 
L 3169 4050 
L 2175 0 
L 1381 0 
L 213 4666 
z
" transform="scale(0.015625)"/>
       <path id="DejaVuSans-51" d="M 3513 2113 
L 3513 0 
L 2938 0 
L 2938 2094 
Q 2938 2591 2744 2837 
Q 2550 3084 2163 3084 
Q 1697 3084 1428 2787 
Q 1159 2491 1159 1978 
L 1159 0 
L 581 0 
L 581 3500 
L 1159 3500 
L 1159 2956 
Q 1366 3272 1645 3428 
Q 1925 3584 2291 3584 
Q 2894 3584 3203 3211 
Q 3513 2838 3513 2113 
z
" transform="scale(0.015625)"/>
       <path id="DejaVuSans-33" d="M 1259 4147 
L 1259 2394 
L 2053 2394 
Q 2494 2394 2734 2622 
Q 2975 2850 2975 3272 
Q 2975 3691 2734 3919 
Q 2494 4147 2053 4147 
L 1259 4147 
z
M 628 4666 
L 2053 4666 
Q 2838 4666 3239 4311 
Q 3641 3956 3641 3272 
Q 3641 2581 3239 2228 
Q 2838 1875 2053 1875 
L 1259 1875 
L 1259 0 
L 628 0 
L 628 4666 
z
" transform="scale(0.015625)"/>
       <path id="DejaVuSans-48" d="M 3597 1894 
L 3597 1613 
L 953 1613 
Q 991 1019 1311 708 
Q 1631 397 2203 397 
Q 2534 397 2845 478 
Q 3156 559 3463 722 
L 3463 178 
Q 3153 47 2828 -22 
Q 2503 -91 2169 -91 
Q 1331 -91 842 396 
Q 353 884 353 1716 
Q 353 2575 817 3079 
Q 1281 3584 2069 3584 
Q 2775 3584 3186 3129 
Q 3597 2675 3597 1894 
z
M 3022 2063 
Q 3016 2534 2758 2815 
Q 2500 3097 2075 3097 
Q 1594 3097 1305 2825 
Q 1016 2553 972 2059 
L 3022 2063 
z
" transform="scale(0.015625)"/>
       <path id="DejaVuSans-4a" d="M 2906 1791 
Q 2906 2416 2648 2759 
Q 2391 3103 1925 3103 
Q 1463 3103 1205 2759 
Q 947 2416 947 1791 
Q 947 1169 1205 825 
Q 1463 481 1925 481 
Q 2391 481 2648 825 
Q 2906 1169 2906 1791 
z
M 3481 434 
Q 3481 -459 3084 -895 
Q 2688 -1331 1869 -1331 
Q 1566 -1331 1297 -1286 
Q 1028 -1241 775 -1147 
L 775 -588 
Q 1028 -725 1275 -790 
Q 1522 -856 1778 -856 
Q 2344 -856 2625 -561 
Q 2906 -266 2906 331 
L 2906 616 
Q 2728 306 2450 153 
Q 2172 0 1784 0 
Q 1141 0 747 490 
Q 353 981 353 1791 
Q 353 2603 747 3093 
Q 1141 3584 1784 3584 
Q 2172 3584 2450 3431 
Q 2728 3278 2906 2969 
L 2906 3500 
L 3481 3500 
L 3481 434 
z
" transform="scale(0.015625)"/>
      </defs>
      <use xlink:href="#DejaVuSans-2b"/>
      <use xlink:href="#DejaVuSans-4c" transform="translate(75.203125 0)"/>
      <use xlink:href="#DejaVuSans-56" transform="translate(102.984375 0)"/>
      <use xlink:href="#DejaVuSans-57" transform="translate(155.078125 0)"/>
      <use xlink:href="#DejaVuSans-52" transform="translate(194.28125 0)"/>
      <use xlink:href="#DejaVuSans-55" transform="translate(255.46875 0)"/>
      <use xlink:href="#DejaVuSans-4c" transform="translate(296.578125 0)"/>
      <use xlink:href="#DejaVuSans-46" transform="translate(324.359375 0)"/>
      <use xlink:href="#DejaVuSans-44" transform="translate(379.34375 0)"/>
      <use xlink:href="#DejaVuSans-4f" transform="translate(440.625 0)"/>
      <use xlink:href="#DejaVuSans-3" transform="translate(468.40625 0)"/>
      <use xlink:href="#DejaVuSans-3a" transform="translate(500.1875 0)"/>
      <use xlink:href="#DejaVuSans-4c" transform="translate(596.859375 0)"/>
      <use xlink:href="#DejaVuSans-51" transform="translate(624.640625 0)"/>
      <use xlink:href="#DejaVuSans-3" transform="translate(688.015625 0)"/>
      <use xlink:href="#DejaVuSans-33" transform="translate(719.796875 0)"/>
      <use xlink:href="#DejaVuSans-48" transform="translate(776.53125 0)"/>
      <use xlink:href="#DejaVuSans-55" transform="translate(838.0625 0)"/>
      <use xlink:href="#DejaVuSans-46" transform="translate(876.96875 0)"/>
      <use xlink:href="#DejaVuSans-48" transform="translate(931.953125 0)"/>
      <use xlink:href="#DejaVuSans-51" transform="translate(993.484375 0)"/>
      <use xlink:href="#DejaVuSans-57" transform="translate(1056.859375 0)"/>
      <use xlink:href="#DejaVuSans-44" transform="translate(1096.0625 0)"/>
      <use xlink:href="#DejaVuSans-4a" transform="translate(1157.34375 0)"/>
      <use xlink:href="#DejaVuSans-48" transform="translate(1220.828125 0)"/>
     </g>
    </g>
   </g>
   <g id="line2d_33">
    <path d="M 96.054362 152.166433 
L 133.658343 149.422855 
L 171.262324 150.726733 
L 208.866305 144.153011 
L 246.470286 144.451817 
L 284.074267 116.418424 
L 321.678247 132.608252 
L 359.282228 162.380149 
L 396.886209 140.540181 
L 434.49019 162.380149 
L 472.094171 175.799235 
L 509.698152 146.190322 
L 547.302133 154.910011 
L 584.906114 150.726733 
L 622.510094 162.380149 
L 660.114075 134.020787 
" clip-path="url(#pc789557f9d)" style="fill: none; stroke: #e63946; stroke-width: 2.2; stroke-linecap: square"/>
   </g>
   <g id="line2d_34">
    <path d="M 96.054362 150.074794 
L 133.658343 149.531511 
L 171.262324 152.08494 
L 208.866305 153.388819 
L 246.470286 151.976284 
L 284.074267 151.378673 
L 321.678247 156.485531 
L 359.282228 158.441349 
L 396.886209 151.460165 
L 434.49019 156.485531 
L 472.094171 155.589114 
L 509.698152 155.860756 
L 547.302133 157.92523 
L 584.906114 155.752099 
L 622.510094 152.954193 
L 660.114075 155.018667 
" clip-path="url(#pc789557f9d)" style="fill: none; stroke: #457b9d; stroke-width: 2.2; stroke-linecap: square"/>
   </g>
   <g id="line2d_35">
    <path d="M 51.305625 259.383295 
L 704.862813 259.383295 
" clip-path="url(#pc789557f9d)" style="fill: none; stroke-dasharray: 2.96,1.28; stroke-dashoffset: 0; stroke: #000000; stroke-opacity: 0.5; stroke-width: 0.8"/>
   </g>
   <g id="patch_3">
    <path d="M 51.305625 269.732832 
L 51.305625 42.043008 
" style="fill: none; stroke: #000000; stroke-width: 0.8; stroke-linejoin: miter; stroke-linecap: square"/>
   </g>
   <g id="patch_4">
    <path d="M 704.862813 269.732832 
L 704.862813 42.043008 
" style="fill: none; stroke: #000000; stroke-width: 0.8; stroke-linejoin: miter; stroke-linecap: square"/>
   </g>
   <g id="patch_5">
    <path d="M 51.305625 269.732832 
L 704.862813 269.732832 
" style="fill: none; stroke: #000000; stroke-width: 0.8; stroke-linejoin: miter; stroke-linecap: square"/>
   </g>
   <g id="patch_6">
    <path d="M 51.305625 42.043008 
L 704.862813 42.043008 
" style="fill: none; stroke: #000000; stroke-width: 0.8; stroke-linejoin: miter; stroke-linecap: square"/>
   </g>
   <g id="text_11">
    <!-- Theorem 3: The Late-Game Timeout -->
    <g transform="translate(236.301406 19.23918) scale(0.14 -0.14)">
     <defs>
      <path id="DejaVuSans-Bold-37" d="M 31 4666 
L 4331 4666 
L 4331 3756 
L 2784 3756 
L 2784 0 
L 1581 0 
L 1581 3756 
L 31 3756 
L 31 4666 
z
" transform="scale(0.015625)"/>
      <path id="DejaVuSans-Bold-4b" d="M 4056 2131 
L 4056 0 
L 2931 0 
L 2931 347 
L 2931 1625 
Q 2931 2084 2911 2256 
Q 2891 2428 2841 2509 
Q 2775 2619 2662 2680 
Q 2550 2741 2406 2741 
Q 2056 2741 1856 2470 
Q 1656 2200 1656 1722 
L 1656 0 
L 538 0 
L 538 4863 
L 1656 4863 
L 1656 2988 
Q 1909 3294 2193 3439 
Q 2478 3584 2822 3584 
Q 3428 3584 3742 3212 
Q 4056 2841 4056 2131 
z
" transform="scale(0.015625)"/>
      <path id="DejaVuSans-Bold-48" d="M 4031 1759 
L 4031 1441 
L 1416 1441 
Q 1456 1047 1700 850 
Q 1944 653 2381 653 
Q 2734 653 3104 758 
Q 3475 863 3866 1075 
L 3866 213 
Q 3469 63 3072 -14 
Q 2675 -91 2278 -91 
Q 1328 -91 801 392 
Q 275 875 275 1747 
Q 275 2603 792 3093 
Q 1309 3584 2216 3584 
Q 3041 3584 3536 3087 
Q 4031 2591 4031 1759 
z
M 2881 2131 
Q 2881 2450 2695 2645 
Q 2509 2841 2209 2841 
Q 1884 2841 1681 2658 
Q 1478 2475 1428 2131 
L 2881 2131 
z
" transform="scale(0.015625)"/>
      <path id="DejaVuSans-Bold-52" d="M 2203 2784 
Q 1831 2784 1636 2517 
Q 1441 2250 1441 1747 
Q 1441 1244 1636 976 
Q 1831 709 2203 709 
Q 2569 709 2762 976 
Q 2956 1244 2956 1747 
Q 2956 2250 2762 2517 
Q 2569 2784 2203 2784 
z
M 2203 3584 
Q 3106 3584 3614 3096 
Q 4122 2609 4122 1747 
Q 4122 884 3614 396 
Q 3106 -91 2203 -91 
Q 1297 -91 786 396 
Q 275 884 275 1747 
Q 275 2609 786 3096 
Q 1297 3584 2203 3584 
z
" transform="scale(0.015625)"/>
      <path id="DejaVuSans-Bold-55" d="M 3138 2547 
Q 2991 2616 2845 2648 
Q 2700 2681 2553 2681 
Q 2122 2681 1889 2404 
Q 1656 2128 1656 1613 
L 1656 0 
L 538 0 
L 538 3500 
L 1656 3500 
L 1656 2925 
Q 1872 3269 2151 3426 
Q 2431 3584 2822 3584 
Q 2878 3584 2943 3579 
Q 3009 3575 3134 3559 
L 3138 2547 
z
" transform="scale(0.015625)"/>
      <path id="DejaVuSans-Bold-50" d="M 3781 2919 
Q 3994 3244 4286 3414 
Q 4578 3584 4928 3584 
Q 5531 3584 5847 3212 
Q 6163 2841 6163 2131 
L 6163 0 
L 5038 0 
L 5038 1825 
Q 5041 1866 5042 1909 
Q 5044 1953 5044 2034 
Q 5044 2406 4934 2573 
Q 4825 2741 4581 2741 
Q 4263 2741 4089 2478 
Q 3916 2216 3909 1719 
L 3909 0 
L 2784 0 
L 2784 1825 
Q 2784 2406 2684 2573 
Q 2584 2741 2328 2741 
Q 2006 2741 1831 2477 
Q 1656 2213 1656 1722 
L 1656 0 
L 531 0 
L 531 3500 
L 1656 3500 
L 1656 2988 
Q 1863 3284 2130 3434 
Q 2397 3584 2719 3584 
Q 3081 3584 3359 3409 
Q 3638 3234 3781 2919 
z
" transform="scale(0.015625)"/>
      <path id="DejaVuSans-Bold-3" transform="scale(0.015625)"/>
      <path id="DejaVuSans-Bold-16" d="M 2981 2516 
Q 3453 2394 3698 2092 
Q 3944 1791 3944 1325 
Q 3944 631 3412 270 
Q 2881 -91 1863 -91 
Q 1503 -91 1142 -33 
Q 781 25 428 141 
L 428 1069 
Q 766 900 1098 814 
Q 1431 728 1753 728 
Q 2231 728 2486 893 
Q 2741 1059 2741 1369 
Q 2741 1688 2480 1852 
Q 2219 2016 1709 2016 
L 1228 2016 
L 1228 2791 
L 1734 2791 
Q 2188 2791 2409 2933 
Q 2631 3075 2631 3366 
Q 2631 3634 2415 3781 
Q 2200 3928 1806 3928 
Q 1516 3928 1219 3862 
Q 922 3797 628 3669 
L 628 4550 
Q 984 4650 1334 4700 
Q 1684 4750 2022 4750 
Q 2931 4750 3382 4451 
Q 3834 4153 3834 3553 
Q 3834 3144 3618 2883 
Q 3403 2622 2981 2516 
z
" transform="scale(0.015625)"/>
      <path id="DejaVuSans-Bold-1d" d="M 716 3500 
L 1844 3500 
L 1844 2291 
L 716 2291 
L 716 3500 
z
M 716 1209 
L 1844 1209 
L 1844 0 
L 716 0 
L 716 1209 
z
" transform="scale(0.015625)"/>
      <path id="DejaVuSans-Bold-2f" d="M 588 4666 
L 1791 4666 
L 1791 909 
L 3903 909 
L 3903 0 
L 588 0 
L 588 4666 
z
" transform="scale(0.015625)"/>
      <path id="DejaVuSans-Bold-44" d="M 2106 1575 
Q 1756 1575 1579 1456 
Q 1403 1338 1403 1106 
Q 1403 894 1545 773 
Q 1688 653 1941 653 
Q 2256 653 2472 879 
Q 2688 1106 2688 1447 
L 2688 1575 
L 2106 1575 
z
M 3816 1997 
L 3816 0 
L 2688 0 
L 2688 519 
Q 2463 200 2181 54 
Q 1900 -91 1497 -91 
Q 953 -91 614 226 
Q 275 544 275 1050 
Q 275 1666 698 1953 
Q 1122 2241 2028 2241 
L 2688 2241 
L 2688 2328 
Q 2688 2594 2478 2717 
Q 2269 2841 1825 2841 
Q 1466 2841 1156 2769 
Q 847 2697 581 2553 
L 581 3406 
Q 941 3494 1303 3539 
Q 1666 3584 2028 3584 
Q 2975 3584 3395 3211 
Q 3816 2838 3816 1997 
z
" transform="scale(0.015625)"/>
      <path id="DejaVuSans-Bold-57" d="M 1759 4494 
L 1759 3500 
L 2913 3500 
L 2913 2700 
L 1759 2700 
L 1759 1216 
Q 1759 972 1856 886 
Q 1953 800 2241 800 
L 2816 800 
L 2816 0 
L 1856 0 
Q 1194 0 917 276 
Q 641 553 641 1216 
L 641 2700 
L 84 2700 
L 84 3500 
L 641 3500 
L 641 4494 
L 1759 4494 
z
" transform="scale(0.015625)"/>
      <path id="DejaVuSans-Bold-10" d="M 347 2297 
L 2309 2297 
L 2309 1388 
L 347 1388 
L 347 2297 
z
" transform="scale(0.015625)"/>
      <path id="DejaVuSans-Bold-2a" d="M 4781 347 
Q 4331 128 3847 18 
Q 3363 -91 2847 -91 
Q 1681 -91 1000 561 
Q 319 1213 319 2328 
Q 319 3456 1012 4103 
Q 1706 4750 2913 4750 
Q 3378 4750 3804 4662 
Q 4231 4575 4609 4403 
L 4609 3438 
Q 4219 3659 3833 3768 
Q 3447 3878 3059 3878 
Q 2341 3878 1952 3476 
Q 1563 3075 1563 2328 
Q 1563 1588 1938 1184 
Q 2313 781 3003 781 
Q 3191 781 3352 804 
Q 3513 828 3641 878 
L 3641 1784 
L 2906 1784 
L 2906 2591 
L 4781 2591 
L 4781 347 
z
" transform="scale(0.015625)"/>
      <path id="DejaVuSans-Bold-4c" d="M 538 3500 
L 1656 3500 
L 1656 0 
L 538 0 
L 538 3500 
z
M 538 4863 
L 1656 4863 
L 1656 3950 
L 538 3950 
L 538 4863 
z
" transform="scale(0.015625)"/>
      <path id="DejaVuSans-Bold-58" d="M 500 1363 
L 500 3500 
L 1625 3500 
L 1625 3150 
Q 1625 2866 1622 2436 
Q 1619 2006 1619 1863 
Q 1619 1441 1641 1255 
Q 1663 1069 1716 984 
Q 1784 875 1895 815 
Q 2006 756 2150 756 
Q 2500 756 2700 1025 
Q 2900 1294 2900 1772 
L 2900 3500 
L 4019 3500 
L 4019 0 
L 2900 0 
L 2900 506 
Q 2647 200 2364 54 
Q 2081 -91 1741 -91 
Q 1134 -91 817 281 
Q 500 653 500 1363 
z
" transform="scale(0.015625)"/>
     </defs>
     <use xlink:href="#DejaVuSans-Bold-37"/>
     <use xlink:href="#DejaVuSans-Bold-4b" transform="translate(68.21875 0)"/>
     <use xlink:href="#DejaVuSans-Bold-48" transform="translate(139.40625 0)"/>
     <use xlink:href="#DejaVuSans-Bold-52" transform="translate(207.234375 0)"/>
     <use xlink:href="#DejaVuSans-Bold-55" transform="translate(275.9375 0)"/>
     <use xlink:href="#DejaVuSans-Bold-48" transform="translate(325.25 0)"/>
     <use xlink:href="#DejaVuSans-Bold-50" transform="translate(393.078125 0)"/>
     <use xlink:href="#DejaVuSans-Bold-3" transform="translate(497.28125 0)"/>
     <use xlink:href="#DejaVuSans-Bold-16" transform="translate(532.09375 0)"/>
     <use xlink:href="#DejaVuSans-Bold-1d" transform="translate(601.671875 0)"/>
     <use xlink:href="#DejaVuSans-Bold-3" transform="translate(641.65625 0)"/>
     <use xlink:href="#DejaVuSans-Bold-37" transform="translate(676.46875 0)"/>
     <use xlink:href="#DejaVuSans-Bold-4b" transform="translate(744.6875 0)"/>
     <use xlink:href="#DejaVuSans-Bold-48" transform="translate(815.875 0)"/>
     <use xlink:href="#DejaVuSans-Bold-3" transform="translate(883.703125 0)"/>
     <use xlink:href="#DejaVuSans-Bold-2f" transform="translate(918.515625 0)"/>
     <use xlink:href="#DejaVuSans-Bold-44" transform="translate(982.234375 0)"/>
     <use xlink:href="#DejaVuSans-Bold-57" transform="translate(1049.71875 0)"/>
     <use xlink:href="#DejaVuSans-Bold-48" transform="translate(1097.515625 0)"/>
     <use xlink:href="#DejaVuSans-Bold-10" transform="translate(1165.34375 0)"/>
     <use xlink:href="#DejaVuSans-Bold-2a" transform="translate(1206.84375 0)"/>
     <use xlink:href="#DejaVuSans-Bold-44" transform="translate(1288.921875 0)"/>
     <use xlink:href="#DejaVuSans-Bold-50" transform="translate(1356.40625 0)"/>
     <use xlink:href="#DejaVuSans-Bold-48" transform="translate(1460.609375 0)"/>
     <use xlink:href="#DejaVuSans-Bold-3" transform="translate(1528.4375 0)"/>
     <use xlink:href="#DejaVuSans-Bold-37" transform="translate(1563.25 0)"/>
     <use xlink:href="#DejaVuSans-Bold-4c" transform="translate(1631.46875 0)"/>
     <use xlink:href="#DejaVuSans-Bold-50" transform="translate(1665.75 0)"/>
     <use xlink:href="#DejaVuSans-Bold-48" transform="translate(1769.953125 0)"/>
     <use xlink:href="#DejaVuSans-Bold-52" transform="translate(1837.78125 0)"/>
     <use xlink:href="#DejaVuSans-Bold-58" transform="translate(1906.484375 0)"/>
     <use xlink:href="#DejaVuSans-Bold-57" transform="translate(1977.671875 0)"/>
    </g>
    <!-- Historical Win Percentage: Timeout vs. Play On -->
    <g transform="translate(191.5375 36.043008) scale(0.14 -0.14)">
     <defs>
      <path id="DejaVuSans-Bold-2b" d="M 588 4666 
L 1791 4666 
L 1791 2888 
L 3566 2888 
L 3566 4666 
L 4769 4666 
L 4769 0 
L 3566 0 
L 3566 1978 
L 1791 1978 
L 1791 0 
L 588 0 
L 588 4666 
z
" transform="scale(0.015625)"/>
      <path id="DejaVuSans-Bold-56" d="M 3272 3391 
L 3272 2541 
Q 2913 2691 2578 2766 
Q 2244 2841 1947 2841 
Q 1628 2841 1473 2761 
Q 1319 2681 1319 2516 
Q 1319 2381 1436 2309 
Q 1553 2238 1856 2203 
L 2053 2175 
Q 2913 2066 3209 1816 
Q 3506 1566 3506 1031 
Q 3506 472 3093 190 
Q 2681 -91 1863 -91 
Q 1516 -91 1145 -36 
Q 775 19 384 128 
L 384 978 
Q 719 816 1070 734 
Q 1422 653 1784 653 
Q 2113 653 2278 743 
Q 2444 834 2444 1013 
Q 2444 1163 2330 1236 
Q 2216 1309 1875 1350 
L 1678 1375 
Q 931 1469 631 1722 
Q 331 1975 331 2491 
Q 331 3047 712 3315 
Q 1094 3584 1881 3584 
Q 2191 3584 2531 3537 
Q 2872 3491 3272 3391 
z
" transform="scale(0.015625)"/>
      <path id="DejaVuSans-Bold-46" d="M 3366 3391 
L 3366 2478 
Q 3138 2634 2908 2709 
Q 2678 2784 2431 2784 
Q 1963 2784 1702 2511 
Q 1441 2238 1441 1747 
Q 1441 1256 1702 982 
Q 1963 709 2431 709 
Q 2694 709 2930 787 
Q 3166 866 3366 1019 
L 3366 103 
Q 3103 6 2833 -42 
Q 2563 -91 2291 -91 
Q 1344 -91 809 395 
Q 275 881 275 1747 
Q 275 2613 809 3098 
Q 1344 3584 2291 3584 
Q 2566 3584 2833 3536 
Q 3100 3488 3366 3391 
z
" transform="scale(0.015625)"/>
      <path id="DejaVuSans-Bold-4f" d="M 538 4863 
L 1656 4863 
L 1656 0 
L 538 0 
L 538 4863 
z
" transform="scale(0.015625)"/>
      <path id="DejaVuSans-Bold-3a" d="M 191 4666 
L 1344 4666 
L 2150 1275 
L 2950 4666 
L 4109 4666 
L 4909 1275 
L 5716 4666 
L 6859 4666 
L 5759 0 
L 4372 0 
L 3525 3547 
L 2688 0 
L 1300 0 
L 191 4666 
z
" transform="scale(0.015625)"/>
      <path id="DejaVuSans-Bold-51" d="M 4056 2131 
L 4056 0 
L 2931 0 
L 2931 347 
L 2931 1631 
Q 2931 2084 2911 2256 
Q 2891 2428 2841 2509 
Q 2775 2619 2662 2680 
Q 2550 2741 2406 2741 
Q 2056 2741 1856 2470 
Q 1656 2200 1656 1722 
L 1656 0 
L 538 0 
L 538 3500 
L 1656 3500 
L 1656 2988 
Q 1909 3294 2193 3439 
Q 2478 3584 2822 3584 
Q 3428 3584 3742 3212 
Q 4056 2841 4056 2131 
z
" transform="scale(0.015625)"/>
      <path id="DejaVuSans-Bold-33" d="M 588 4666 
L 2584 4666 
Q 3475 4666 3951 4270 
Q 4428 3875 4428 3144 
Q 4428 2409 3951 2014 
Q 3475 1619 2584 1619 
L 1791 1619 
L 1791 0 
L 588 0 
L 588 4666 
z
M 1791 3794 
L 1791 2491 
L 2456 2491 
Q 2806 2491 2997 2661 
Q 3188 2831 3188 3144 
Q 3188 3456 2997 3625 
Q 2806 3794 2456 3794 
L 1791 3794 
z
" transform="scale(0.015625)"/>
      <path id="DejaVuSans-Bold-4a" d="M 2919 594 
Q 2688 288 2409 144 
Q 2131 0 1766 0 
Q 1125 0 706 504 
Q 288 1009 288 1791 
Q 288 2575 706 3076 
Q 1125 3578 1766 3578 
Q 2131 3578 2409 3434 
Q 2688 3291 2919 2981 
L 2919 3500 
L 4044 3500 
L 4044 353 
Q 4044 -491 3511 -936 
Q 2978 -1381 1966 -1381 
Q 1638 -1381 1331 -1331 
Q 1025 -1281 716 -1178 
L 716 -306 
Q 1009 -475 1290 -558 
Q 1572 -641 1856 -641 
Q 2406 -641 2662 -400 
Q 2919 -159 2919 353 
L 2919 594 
z
M 2181 2772 
Q 1834 2772 1640 2515 
Q 1447 2259 1447 1791 
Q 1447 1309 1634 1061 
Q 1822 813 2181 813 
Q 2531 813 2725 1069 
Q 2919 1325 2919 1791 
Q 2919 2259 2725 2515 
Q 2531 2772 2181 2772 
z
" transform="scale(0.015625)"/>
      <path id="DejaVuSans-Bold-59" d="M 97 3500 
L 1216 3500 
L 2088 1081 
L 2956 3500 
L 4078 3500 
L 2700 0 
L 1472 0 
L 97 3500 
z
" transform="scale(0.015625)"/>
      <path id="DejaVuSans-Bold-11" d="M 653 1209 
L 1778 1209 
L 1778 0 
L 653 0 
L 653 1209 
z
" transform="scale(0.015625)"/>
      <path id="DejaVuSans-Bold-5c" d="M 78 3500 
L 1197 3500 
L 2138 1125 
L 2938 3500 
L 4056 3500 
L 2584 -331 
Q 2363 -916 2067 -1148 
Q 1772 -1381 1288 -1381 
L 641 -1381 
L 641 -647 
L 991 -647 
Q 1275 -647 1404 -556 
Q 1534 -466 1606 -231 
L 1638 -134 
L 78 3500 
z
" transform="scale(0.015625)"/>
      <path id="DejaVuSans-Bold-32" d="M 2719 3878 
Q 2169 3878 1866 3472 
Q 1563 3066 1563 2328 
Q 1563 1594 1866 1187 
Q 2169 781 2719 781 
Q 3272 781 3575 1187 
Q 3878 1594 3878 2328 
Q 3878 3066 3575 3472 
Q 3272 3878 2719 3878 
z
M 2719 4750 
Q 3844 4750 4481 4106 
Q 5119 3463 5119 2328 
Q 5119 1197 4481 553 
Q 3844 -91 2719 -91 
Q 1597 -91 958 553 
Q 319 1197 319 2328 
Q 319 3463 958 4106 
Q 1597 4750 2719 4750 
z
" transform="scale(0.015625)"/>
     </defs>
     <use xlink:href="#DejaVuSans-Bold-2b"/>
     <use xlink:href="#DejaVuSans-Bold-4c" transform="translate(83.6875 0)"/>
     <use xlink:href="#DejaVuSans-Bold-56" transform="translate(117.96875 0)"/>
     <use xlink:href="#DejaVuSans-Bold-57" transform="translate(177.484375 0)"/>
     <use xlink:href="#DejaVuSans-Bold-52" transform="translate(225.28125 0)"/>
     <use xlink:href="#DejaVuSans-Bold-55" transform="translate(293.984375 0)"/>
     <use xlink:href="#DejaVuSans-Bold-4c" transform="translate(343.296875 0)"/>
     <use xlink:href="#DejaVuSans-Bold-46" transform="translate(377.578125 0)"/>
     <use xlink:href="#DejaVuSans-Bold-44" transform="translate(436.859375 0)"/>
     <use xlink:href="#DejaVuSans-Bold-4f" transform="translate(504.34375 0)"/>
     <use xlink:href="#DejaVuSans-Bold-3" transform="translate(538.625 0)"/>
     <use xlink:href="#DejaVuSans-Bold-3a" transform="translate(573.4375 0)"/>
     <use xlink:href="#DejaVuSans-Bold-4c" transform="translate(683.734375 0)"/>
     <use xlink:href="#DejaVuSans-Bold-51" transform="translate(718.015625 0)"/>
     <use xlink:href="#DejaVuSans-Bold-3" transform="translate(789.203125 0)"/>
     <use xlink:href="#DejaVuSans-Bold-33" transform="translate(824.015625 0)"/>
     <use xlink:href="#DejaVuSans-Bold-48" transform="translate(897.3125 0)"/>
     <use xlink:href="#DejaVuSans-Bold-55" transform="translate(965.140625 0)"/>
     <use xlink:href="#DejaVuSans-Bold-46" transform="translate(1014.453125 0)"/>
     <use xlink:href="#DejaVuSans-Bold-48" transform="translate(1073.734375 0)"/>
     <use xlink:href="#DejaVuSans-Bold-51" transform="translate(1141.5625 0)"/>
     <use xlink:href="#DejaVuSans-Bold-57" transform="translate(1212.75 0)"/>
     <use xlink:href="#DejaVuSans-Bold-44" transform="translate(1260.546875 0)"/>
     <use xlink:href="#DejaVuSans-Bold-4a" transform="translate(1328.03125 0)"/>
     <use xlink:href="#DejaVuSans-Bold-48" transform="translate(1399.609375 0)"/>
     <use xlink:href="#DejaVuSans-Bold-1d" transform="translate(1467.4375 0)"/>
     <use xlink:href="#DejaVuSans-Bold-3" transform="translate(1507.421875 0)"/>
     <use xlink:href="#DejaVuSans-Bold-37" transform="translate(1542.234375 0)"/>
     <use xlink:href="#DejaVuSans-Bold-4c" transform="translate(1610.453125 0)"/>
     <use xlink:href="#DejaVuSans-Bold-50" transform="translate(1644.734375 0)"/>
     <use xlink:href="#DejaVuSans-Bold-48" transform="translate(1748.9375 0)"/>
     <use xlink:href="#DejaVuSans-Bold-52" transform="translate(1816.765625 0)"/>
     <use xlink:href="#DejaVuSans-Bold-58" transform="translate(1885.46875 0)"/>
     <use xlink:href="#DejaVuSans-Bold-57" transform="translate(1956.65625 0)"/>
     <use xlink:href="#DejaVuSans-Bold-3" transform="translate(2004.453125 0)"/>
     <use xlink:href="#DejaVuSans-Bold-59" transform="translate(2039.265625 0)"/>
     <use xlink:href="#DejaVuSans-Bold-56" transform="translate(2104.453125 0)"/>
     <use xlink:href="#DejaVuSans-Bold-11" transform="translate(2163.96875 0)"/>
     <use xlink:href="#DejaVuSans-Bold-3" transform="translate(2201.953125 0)"/>
     <use xlink:href="#DejaVuSans-Bold-33" transform="translate(2236.765625 0)"/>
     <use xlink:href="#DejaVuSans-Bold-4f" transform="translate(2310.0625 0)"/>
     <use xlink:href="#DejaVuSans-Bold-44" transform="translate(2344.34375 0)"/>
     <use xlink:href="#DejaVuSans-Bold-5c" transform="translate(2408.75 0)"/>
     <use xlink:href="#DejaVuSans-Bold-3" transform="translate(2473.9375 0)"/>
     <use xlink:href="#DejaVuSans-Bold-32" transform="translate(2508.75 0)"/>
     <use xlink:href="#DejaVuSans-Bold-51" transform="translate(2593.765625 0)"/>
    </g>
   </g>
   <g id="legend_1">
    <g id="patch_7">
     <path d="M 520.887812 95.045352 
L 697.862813 95.045352 
Q 699.862813 95.045352 699.862813 93.045352 
L 699.862813 49.043008 
Q 699.862813 47.043008 697.862813 47.043008 
L 520.887812 47.043008 
Q 518.887812 47.043008 518.887812 49.043008 
L 518.887812 93.045352 
Q 518.887812 95.045352 520.887812 95.045352 
z
" style="fill: #ffffff; opacity: 0.8; stroke: #cccccc; stroke-linejoin: miter"/>
    </g>
    <g id="line2d_36">
     <path d="M 522.887812 55.141445 
L 532.887812 55.141445 
L 542.887812 55.141445 
" style="fill: none; stroke: #e63946; stroke-width: 2.2; stroke-linecap: square"/>
    </g>
    <g id="text_12">
     <!-- Timeout -->
     <g transform="translate(550.887812 58.641445) scale(0.1 -0.1)">
      <defs>
       <path id="DejaVuSans-37" d="M -19 4666 
L 3928 4666 
L 3928 4134 
L 2272 4134 
L 2272 0 
L 1638 0 
L 1638 4134 
L -19 4134 
L -19 4666 
z
" transform="scale(0.015625)"/>
       <path id="DejaVuSans-50" d="M 3328 2828 
Q 3544 3216 3844 3400 
Q 4144 3584 4550 3584 
Q 5097 3584 5394 3201 
Q 5691 2819 5691 2113 
L 5691 0 
L 5113 0 
L 5113 2094 
Q 5113 2597 4934 2840 
Q 4756 3084 4391 3084 
Q 3944 3084 3684 2787 
Q 3425 2491 3425 1978 
L 3425 0 
L 2847 0 
L 2847 2094 
Q 2847 2600 2669 2842 
Q 2491 3084 2119 3084 
Q 1678 3084 1418 2786 
Q 1159 2488 1159 1978 
L 1159 0 
L 581 0 
L 581 3500 
L 1159 3500 
L 1159 2956 
Q 1356 3278 1631 3431 
Q 1906 3584 2284 3584 
Q 2666 3584 2933 3390 
Q 3200 3197 3328 2828 
z
" transform="scale(0.015625)"/>
       <path id="DejaVuSans-58" d="M 544 1381 
L 544 3500 
L 1119 3500 
L 1119 1403 
Q 1119 906 1312 657 
Q 1506 409 1894 409 
Q 2359 409 2629 706 
Q 2900 1003 2900 1516 
L 2900 3500 
L 3475 3500 
L 3475 0 
L 2900 0 
L 2900 538 
Q 2691 219 2414 64 
Q 2138 -91 1772 -91 
Q 1169 -91 856 284 
Q 544 659 544 1381 
z
M 1991 3584 
L 1991 3584 
z
" transform="scale(0.015625)"/>
      </defs>
      <use xlink:href="#DejaVuSans-37"/>
      <use xlink:href="#DejaVuSans-4c" transform="translate(58 0)"/>
      <use xlink:href="#DejaVuSans-50" transform="translate(85.78125 0)"/>
      <use xlink:href="#DejaVuSans-48" transform="translate(183.1875 0)"/>
      <use xlink:href="#DejaVuSans-52" transform="translate(244.71875 0)"/>
      <use xlink:href="#DejaVuSans-58" transform="translate(305.90625 0)"/>
      <use xlink:href="#DejaVuSans-57" transform="translate(369.28125 0)"/>
     </g>
    </g>
    <g id="patch_8">
     <path d="M 522.887812 73.642227 
L 542.887812 73.642227 
L 542.887812 66.642227 
L 522.887812 66.642227 
z
" style="fill: #e63946; fill-opacity: 0.15; stroke: #e63946; stroke-opacity: 0.15; stroke-linejoin: miter"/>
    </g>
    <g id="text_13">
     <!-- 95% game-clustered interval -->
     <g transform="translate(550.887812 73.642227) scale(0.1 -0.1)">
      <defs>
       <path id="DejaVuSans-1c" d="M 703 97 
L 703 672 
Q 941 559 1184 500 
Q 1428 441 1663 441 
Q 2288 441 2617 861 
Q 2947 1281 2994 2138 
Q 2813 1869 2534 1725 
Q 2256 1581 1919 1581 
Q 1219 1581 811 2004 
Q 403 2428 403 3163 
Q 403 3881 828 4315 
Q 1253 4750 1959 4750 
Q 2769 4750 3195 4129 
Q 3622 3509 3622 2328 
Q 3622 1225 3098 567 
Q 2575 -91 1691 -91 
Q 1453 -91 1209 -44 
Q 966 3 703 97 
z
M 1959 2075 
Q 2384 2075 2632 2365 
Q 2881 2656 2881 3163 
Q 2881 3666 2632 3958 
Q 2384 4250 1959 4250 
Q 1534 4250 1286 3958 
Q 1038 3666 1038 3163 
Q 1038 2656 1286 2365 
Q 1534 2075 1959 2075 
z
" transform="scale(0.015625)"/>
       <path id="DejaVuSans-8" d="M 4653 2053 
Q 4381 2053 4226 1822 
Q 4072 1591 4072 1178 
Q 4072 772 4226 539 
Q 4381 306 4653 306 
Q 4919 306 5073 539 
Q 5228 772 5228 1178 
Q 5228 1588 5073 1820 
Q 4919 2053 4653 2053 
z
M 4653 2450 
Q 5147 2450 5437 2106 
Q 5728 1763 5728 1178 
Q 5728 594 5436 251 
Q 5144 -91 4653 -91 
Q 4153 -91 3862 251 
Q 3572 594 3572 1178 
Q 3572 1766 3864 2108 
Q 4156 2450 4653 2450 
z
M 1428 4353 
Q 1159 4353 1004 4120 
Q 850 3888 850 3481 
Q 850 3069 1003 2837 
Q 1156 2606 1428 2606 
Q 1700 2606 1854 2837 
Q 2009 3069 2009 3481 
Q 2009 3884 1853 4118 
Q 1697 4353 1428 4353 
z
M 4250 4750 
L 4750 4750 
L 1831 -91 
L 1331 -91 
L 4250 4750 
z
M 1428 4750 
Q 1922 4750 2215 4408 
Q 2509 4066 2509 3481 
Q 2509 2891 2217 2550 
Q 1925 2209 1428 2209 
Q 931 2209 642 2551 
Q 353 2894 353 3481 
Q 353 4063 643 4406 
Q 934 4750 1428 4750 
z
" transform="scale(0.015625)"/>
       <path id="DejaVuSans-10" d="M 313 2009 
L 1997 2009 
L 1997 1497 
L 313 1497 
L 313 2009 
z
" transform="scale(0.015625)"/>
       <path id="DejaVuSans-47" d="M 2906 2969 
L 2906 4863 
L 3481 4863 
L 3481 0 
L 2906 0 
L 2906 525 
Q 2725 213 2448 61 
Q 2172 -91 1784 -91 
Q 1150 -91 751 415 
Q 353 922 353 1747 
Q 353 2572 751 3078 
Q 1150 3584 1784 3584 
Q 2172 3584 2448 3432 
Q 2725 3281 2906 2969 
z
M 947 1747 
Q 947 1113 1208 752 
Q 1469 391 1925 391 
Q 2381 391 2643 752 
Q 2906 1113 2906 1747 
Q 2906 2381 2643 2742 
Q 2381 3103 1925 3103 
Q 1469 3103 1208 2742 
Q 947 2381 947 1747 
z
" transform="scale(0.015625)"/>
       <path id="DejaVuSans-59" d="M 191 3500 
L 800 3500 
L 1894 563 
L 2988 3500 
L 3597 3500 
L 2284 0 
L 1503 0 
L 191 3500 
z
" transform="scale(0.015625)"/>
      </defs>
      <use xlink:href="#DejaVuSans-1c"/>
      <use xlink:href="#DejaVuSans-18" transform="translate(63.625 0)"/>
      <use xlink:href="#DejaVuSans-8" transform="translate(127.25 0)"/>
      <use xlink:href="#DejaVuSans-3" transform="translate(222.265625 0)"/>
      <use xlink:href="#DejaVuSans-4a" transform="translate(254.046875 0)"/>
      <use xlink:href="#DejaVuSans-44" transform="translate(317.53125 0)"/>
      <use xlink:href="#DejaVuSans-50" transform="translate(378.8125 0)"/>
      <use xlink:href="#DejaVuSans-48" transform="translate(476.21875 0)"/>
      <use xlink:href="#DejaVuSans-10" transform="translate(537.75 0)"/>
      <use xlink:href="#DejaVuSans-46" transform="translate(573.828125 0)"/>
      <use xlink:href="#DejaVuSans-4f" transform="translate(628.8125 0)"/>
      <use xlink:href="#DejaVuSans-58" transform="translate(656.59375 0)"/>
      <use xlink:href="#DejaVuSans-56" transform="translate(719.96875 0)"/>
      <use xlink:href="#DejaVuSans-57" transform="translate(772.0625 0)"/>
      <use xlink:href="#DejaVuSans-48" transform="translate(811.265625 0)"/>
      <use xlink:href="#DejaVuSans-55" transform="translate(872.796875 0)"/>
      <use xlink:href="#DejaVuSans-48" transform="translate(911.703125 0)"/>
      <use xlink:href="#DejaVuSans-47" transform="translate(973.234375 0)"/>
      <use xlink:href="#DejaVuSans-3" transform="translate(1036.71875 0)"/>
      <use xlink:href="#DejaVuSans-4c" transform="translate(1068.5 0)"/>
      <use xlink:href="#DejaVuSans-51" transform="translate(1096.28125 0)"/>
      <use xlink:href="#DejaVuSans-57" transform="translate(1159.65625 0)"/>
      <use xlink:href="#DejaVuSans-48" transform="translate(1198.859375 0)"/>
      <use xlink:href="#DejaVuSans-55" transform="translate(1260.390625 0)"/>
      <use xlink:href="#DejaVuSans-59" transform="translate(1301.5 0)"/>
      <use xlink:href="#DejaVuSans-44" transform="translate(1360.6875 0)"/>
      <use xlink:href="#DejaVuSans-4f" transform="translate(1421.96875 0)"/>
     </g>
    </g>
    <g id="line2d_37">
     <path d="M 522.887812 85.143008 
L 532.887812 85.143008 
L 542.887812 85.143008 
" style="fill: none; stroke: #457b9d; stroke-width: 2.2; stroke-linecap: square"/>
    </g>
    <g id="text_14">
     <!-- Play On -->
     <g transform="translate(550.887812 88.643008) scale(0.1 -0.1)">
      <defs>
       <path id="DejaVuSans-5c" d="M 2059 -325 
Q 1816 -950 1584 -1140 
Q 1353 -1331 966 -1331 
L 506 -1331 
L 506 -850 
L 844 -850 
Q 1081 -850 1212 -737 
Q 1344 -625 1503 -206 
L 1606 56 
L 191 3500 
L 800 3500 
L 1894 763 
L 2988 3500 
L 3597 3500 
L 2059 -325 
z
" transform="scale(0.015625)"/>
       <path id="DejaVuSans-32" d="M 2522 4238 
Q 1834 4238 1429 3725 
Q 1025 3213 1025 2328 
Q 1025 1447 1429 934 
Q 1834 422 2522 422 
Q 3209 422 3611 934 
Q 4013 1447 4013 2328 
Q 4013 3213 3611 3725 
Q 3209 4238 2522 4238 
z
M 2522 4750 
Q 3503 4750 4090 4092 
Q 4678 3434 4678 2328 
Q 4678 1225 4090 567 
Q 3503 -91 2522 -91 
Q 1538 -91 948 565 
Q 359 1222 359 2328 
Q 359 3434 948 4092 
Q 1538 4750 2522 4750 
z
" transform="scale(0.015625)"/>
      </defs>
      <use xlink:href="#DejaVuSans-33"/>
      <use xlink:href="#DejaVuSans-4f" transform="translate(60.296875 0)"/>
      <use xlink:href="#DejaVuSans-44" transform="translate(88.078125 0)"/>
      <use xlink:href="#DejaVuSans-5c" transform="translate(149.359375 0)"/>
      <use xlink:href="#DejaVuSans-3" transform="translate(208.546875 0)"/>
      <use xlink:href="#DejaVuSans-32" transform="translate(240.328125 0)"/>
      <use xlink:href="#DejaVuSans-51" transform="translate(319.046875 0)"/>
     </g>
    </g>
   </g>
  </g>
  <g id="axes_2">
   <g id="patch_9">
    <path d="M 51.305625 528.359375 
L 704.862813 528.359375 
L 704.862813 300.669551 
L 51.305625 300.669551 
z
" style="fill: #ffffff"/>
   </g>
   <g id="patch_10">
    <path d="M 81.01277 420.434843 
L 111.095955 420.434843 
L 111.095955 422.719903 
L 81.01277 422.719903 
z
" clip-path="url(#pe07d832418)" style="fill: #e63946; opacity: 0.85"/>
   </g>
   <g id="patch_11">
    <path d="M 118.616751 420.434843 
L 148.699935 420.434843 
L 148.699935 420.316139 
L 118.616751 420.316139 
z
" clip-path="url(#pe07d832418)" style="fill: #2dc653; opacity: 0.85"/>
   </g>
   <g id="patch_12">
    <path d="M 156.220732 420.434843 
L 186.303916 420.434843 
L 186.303916 418.951039 
L 156.220732 418.951039 
z
" clip-path="url(#pe07d832418)" style="fill: #2dc653; opacity: 0.85"/>
   </g>
   <g id="patch_13">
    <path d="M 193.824712 420.434843 
L 223.907897 420.434843 
L 223.907897 410.315296 
L 193.824712 410.315296 
z
" clip-path="url(#pe07d832418)" style="fill: #2dc653; opacity: 0.85"/>
   </g>
   <g id="patch_14">
    <path d="M 231.428693 420.434843 
L 261.511878 420.434843 
L 261.511878 412.214566 
L 231.428693 412.214566 
z
" clip-path="url(#pe07d832418)" style="fill: #2dc653; opacity: 0.85"/>
   </g>
   <g id="patch_15">
    <path d="M 269.032674 420.434843 
L 299.115859 420.434843 
L 299.115859 382.241712 
L 269.032674 382.241712 
z
" clip-path="url(#pe07d832418)" style="fill: #2dc653; opacity: 0.85"/>
   </g>
   <g id="patch_16">
    <path d="M 306.636655 420.434843 
L 336.71984 420.434843 
L 336.71984 394.379234 
L 306.636655 394.379234 
z
" clip-path="url(#pe07d832418)" style="fill: #2dc653; opacity: 0.85"/>
   </g>
   <g id="patch_17">
    <path d="M 344.240636 420.434843 
L 374.323821 420.434843 
L 374.323821 424.708201 
L 344.240636 424.708201 
z
" clip-path="url(#pe07d832418)" style="fill: #e63946; opacity: 0.85"/>
   </g>
   <g id="patch_18">
    <path d="M 381.844617 420.434843 
L 411.927802 420.434843 
L 411.927802 408.505054 
L 381.844617 408.505054 
z
" clip-path="url(#pe07d832418)" style="fill: #2dc653; opacity: 0.85"/>
   </g>
   <g id="patch_19">
    <path d="M 419.448598 420.434843 
L 449.531782 420.434843 
L 449.531782 426.874556 
L 419.448598 426.874556 
z
" clip-path="url(#pe07d832418)" style="fill: #e63946; opacity: 0.85"/>
   </g>
   <g id="patch_20">
    <path d="M 457.052579 420.434843 
L 487.135763 420.434843 
L 487.135763 442.513857 
L 457.052579 442.513857 
z
" clip-path="url(#pe07d832418)" style="fill: #e63946; opacity: 0.85"/>
   </g>
   <g id="patch_21">
    <path d="M 494.656559 420.434843 
L 524.739744 420.434843 
L 524.739744 409.870154 
L 494.656559 409.870154 
z
" clip-path="url(#pe07d832418)" style="fill: #2dc653; opacity: 0.85"/>
   </g>
   <g id="patch_22">
    <path d="M 532.26054 420.434843 
L 562.343725 420.434843 
L 562.343725 417.140797 
L 532.26054 417.140797 
z
" clip-path="url(#pe07d832418)" style="fill: #2dc653; opacity: 0.85"/>
   </g>
   <g id="patch_23">
    <path d="M 569.864521 420.434843 
L 599.947706 420.434843 
L 599.947706 414.944766 
L 569.864521 414.944766 
z
" clip-path="url(#pe07d832418)" style="fill: #2dc653; opacity: 0.85"/>
   </g>
   <g id="patch_24">
    <path d="M 607.468502 420.434843 
L 637.551687 420.434843 
L 637.551687 430.732448 
L 607.468502 430.732448 
z
" clip-path="url(#pe07d832418)" style="fill: #e63946; opacity: 0.85"/>
   </g>
   <g id="patch_25">
    <path d="M 645.072483 420.434843 
L 675.155668 420.434843 
L 675.155668 397.495224 
L 645.072483 397.495224 
z
" clip-path="url(#pe07d832418)" style="fill: #2dc653; opacity: 0.85"/>
   </g>
   <g id="matplotlib.axis_3">
    <g id="xtick_8">
     <g id="line2d_38">
      <g>
       <use xlink:href="#m646fedad69" x="96.054362" y="528.359375" style="stroke: #000000; stroke-width: 0.8"/>
      </g>
     </g>
     <g id="text_15">
      <!-- 20 -->
      <g transform="translate(89.691862 542.957031) scale(0.1 -0.1)">
       <use xlink:href="#DejaVuSans-15"/>
       <use xlink:href="#DejaVuSans-13" transform="translate(63.625 0)"/>
      </g>
     </g>
    </g>
    <g id="xtick_9">
     <g id="line2d_39">
      <g>
       <use xlink:href="#m646fedad69" x="190.064314" y="528.359375" style="stroke: #000000; stroke-width: 0.8"/>
      </g>
     </g>
     <g id="text_16">
      <!-- 25 -->
      <g transform="translate(183.701814 542.957031) scale(0.1 -0.1)">
       <use xlink:href="#DejaVuSans-15"/>
       <use xlink:href="#DejaVuSans-18" transform="translate(63.625 0)"/>
      </g>
     </g>
    </g>
    <g id="xtick_10">
     <g id="line2d_40">
      <g>
       <use xlink:href="#m646fedad69" x="284.074267" y="528.359375" style="stroke: #000000; stroke-width: 0.8"/>
      </g>
     </g>
     <g id="text_17">
      <!-- 30 -->
      <g transform="translate(277.711767 542.957031) scale(0.1 -0.1)">
       <use xlink:href="#DejaVuSans-16"/>
       <use xlink:href="#DejaVuSans-13" transform="translate(63.625 0)"/>
      </g>
     </g>
    </g>
    <g id="xtick_11">
     <g id="line2d_41">
      <g>
       <use xlink:href="#m646fedad69" x="378.084219" y="528.359375" style="stroke: #000000; stroke-width: 0.8"/>
      </g>
     </g>
     <g id="text_18">
      <!-- 35 -->
      <g transform="translate(371.721719 542.957031) scale(0.1 -0.1)">
       <use xlink:href="#DejaVuSans-16"/>
       <use xlink:href="#DejaVuSans-18" transform="translate(63.625 0)"/>
      </g>
     </g>
    </g>
    <g id="xtick_12">
     <g id="line2d_42">
      <g>
       <use xlink:href="#m646fedad69" x="472.094171" y="528.359375" style="stroke: #000000; stroke-width: 0.8"/>
      </g>
     </g>
     <g id="text_19">
      <!-- 40 -->
      <g transform="translate(465.731671 542.957031) scale(0.1 -0.1)">
       <use xlink:href="#DejaVuSans-17"/>
       <use xlink:href="#DejaVuSans-13" transform="translate(63.625 0)"/>
      </g>
     </g>
    </g>
    <g id="xtick_13">
     <g id="line2d_43">
      <g>
       <use xlink:href="#m646fedad69" x="566.104123" y="528.359375" style="stroke: #000000; stroke-width: 0.8"/>
      </g>
     </g>
     <g id="text_20">
      <!-- 45 -->
      <g transform="translate(559.741623 542.957031) scale(0.1 -0.1)">
       <use xlink:href="#DejaVuSans-17"/>
       <use xlink:href="#DejaVuSans-18" transform="translate(63.625 0)"/>
      </g>
     </g>
    </g>
    <g id="xtick_14">
     <g id="line2d_44">
      <g>
       <use xlink:href="#m646fedad69" x="660.114075" y="528.359375" style="stroke: #000000; stroke-width: 0.8"/>
      </g>
     </g>
     <g id="text_21">
      <!-- 50 -->
      <g transform="translate(653.751575 542.957031) scale(0.1 -0.1)">
       <use xlink:href="#DejaVuSans-18"/>
       <use xlink:href="#DejaVuSans-13" transform="translate(63.625 0)"/>
      </g>
     </g>
    </g>
    <g id="text_22">
     <!-- Seconds Remaining -->
     <g transform="translate(319.107969 558.4775) scale(0.12 -0.12)">
      <defs>
       <path id="DejaVuSans-36" d="M 3425 4513 
L 3425 3897 
Q 3066 4069 2747 4153 
Q 2428 4238 2131 4238 
Q 1616 4238 1336 4038 
Q 1056 3838 1056 3469 
Q 1056 3159 1242 3001 
Q 1428 2844 1947 2747 
L 2328 2669 
Q 3034 2534 3370 2195 
Q 3706 1856 3706 1288 
Q 3706 609 3251 259 
Q 2797 -91 1919 -91 
Q 1588 -91 1214 -16 
Q 841 59 441 206 
L 441 856 
Q 825 641 1194 531 
Q 1563 422 1919 422 
Q 2459 422 2753 634 
Q 3047 847 3047 1241 
Q 3047 1584 2836 1778 
Q 2625 1972 2144 2069 
L 1759 2144 
Q 1053 2284 737 2584 
Q 422 2884 422 3419 
Q 422 4038 858 4394 
Q 1294 4750 2059 4750 
Q 2388 4750 2728 4690 
Q 3069 4631 3425 4513 
z
" transform="scale(0.015625)"/>
       <path id="DejaVuSans-35" d="M 2841 2188 
Q 3044 2119 3236 1894 
Q 3428 1669 3622 1275 
L 4263 0 
L 3584 0 
L 2988 1197 
Q 2756 1666 2539 1819 
Q 2322 1972 1947 1972 
L 1259 1972 
L 1259 0 
L 628 0 
L 628 4666 
L 2053 4666 
Q 2853 4666 3247 4331 
Q 3641 3997 3641 3322 
Q 3641 2881 3436 2590 
Q 3231 2300 2841 2188 
z
M 1259 4147 
L 1259 2491 
L 2053 2491 
Q 2509 2491 2742 2702 
Q 2975 2913 2975 3322 
Q 2975 3731 2742 3939 
Q 2509 4147 2053 4147 
L 1259 4147 
z
" transform="scale(0.015625)"/>
      </defs>
      <use xlink:href="#DejaVuSans-36"/>
      <use xlink:href="#DejaVuSans-48" transform="translate(63.484375 0)"/>
      <use xlink:href="#DejaVuSans-46" transform="translate(125.015625 0)"/>
      <use xlink:href="#DejaVuSans-52" transform="translate(180 0)"/>
      <use xlink:href="#DejaVuSans-51" transform="translate(241.1875 0)"/>
      <use xlink:href="#DejaVuSans-47" transform="translate(304.5625 0)"/>
      <use xlink:href="#DejaVuSans-56" transform="translate(368.046875 0)"/>
      <use xlink:href="#DejaVuSans-3" transform="translate(420.140625 0)"/>
      <use xlink:href="#DejaVuSans-35" transform="translate(451.921875 0)"/>
      <use xlink:href="#DejaVuSans-48" transform="translate(516.921875 0)"/>
      <use xlink:href="#DejaVuSans-50" transform="translate(578.453125 0)"/>
      <use xlink:href="#DejaVuSans-44" transform="translate(675.859375 0)"/>
      <use xlink:href="#DejaVuSans-4c" transform="translate(737.140625 0)"/>
      <use xlink:href="#DejaVuSans-51" transform="translate(764.921875 0)"/>
      <use xlink:href="#DejaVuSans-4c" transform="translate(828.296875 0)"/>
      <use xlink:href="#DejaVuSans-51" transform="translate(856.078125 0)"/>
      <use xlink:href="#DejaVuSans-4a" transform="translate(919.453125 0)"/>
     </g>
    </g>
   </g>
   <g id="matplotlib.axis_4">
    <g id="ytick_10">
     <g id="line2d_45">
      <path d="M 51.305625 509.463123 
L 704.862813 509.463123 
" clip-path="url(#pe07d832418)" style="fill: none; stroke: #b0b0b0; stroke-opacity: 0.3; stroke-width: 0.8; stroke-linecap: square"/>
     </g>
     <g id="line2d_46">
      <g>
       <use xlink:href="#md530ac4fa4" x="51.305625" y="509.463123" style="stroke: #000000; stroke-width: 0.8"/>
      </g>
     </g>
     <g id="text_23">
      <!-- −30 -->
      <g transform="translate(23.200938 513.261951) scale(0.1 -0.1)">
       <defs>
        <path id="DejaVuSans-c9c" d="M 678 2272 
L 4684 2272 
L 4684 1741 
L 678 1741 
L 678 2272 
z
" transform="scale(0.015625)"/>
       </defs>
       <use xlink:href="#DejaVuSans-c9c"/>
       <use xlink:href="#DejaVuSans-16" transform="translate(83.796875 0)"/>
       <use xlink:href="#DejaVuSans-13" transform="translate(147.421875 0)"/>
      </g>
     </g>
    </g>
    <g id="ytick_11">
     <g id="line2d_47">
      <path d="M 51.305625 479.78703 
L 704.862813 479.78703 
" clip-path="url(#pe07d832418)" style="fill: none; stroke: #b0b0b0; stroke-opacity: 0.3; stroke-width: 0.8; stroke-linecap: square"/>
     </g>
     <g id="line2d_48">
      <g>
       <use xlink:href="#md530ac4fa4" x="51.305625" y="479.78703" style="stroke: #000000; stroke-width: 0.8"/>
      </g>
     </g>
     <g id="text_24">
      <!-- −20 -->
      <g transform="translate(23.200938 483.585858) scale(0.1 -0.1)">
       <use xlink:href="#DejaVuSans-c9c"/>
       <use xlink:href="#DejaVuSans-15" transform="translate(83.796875 0)"/>
       <use xlink:href="#DejaVuSans-13" transform="translate(147.421875 0)"/>
      </g>
     </g>
    </g>
    <g id="ytick_12">
     <g id="line2d_49">
      <path d="M 51.305625 450.110937 
L 704.862813 450.110937 
" clip-path="url(#pe07d832418)" style="fill: none; stroke: #b0b0b0; stroke-opacity: 0.3; stroke-width: 0.8; stroke-linecap: square"/>
     </g>
     <g id="line2d_50">
      <g>
       <use xlink:href="#md530ac4fa4" x="51.305625" y="450.110937" style="stroke: #000000; stroke-width: 0.8"/>
      </g>
     </g>
     <g id="text_25">
      <!-- −10 -->
      <g transform="translate(23.200938 453.909765) scale(0.1 -0.1)">
       <use xlink:href="#DejaVuSans-c9c"/>
       <use xlink:href="#DejaVuSans-14" transform="translate(83.796875 0)"/>
       <use xlink:href="#DejaVuSans-13" transform="translate(147.421875 0)"/>
      </g>
     </g>
    </g>
    <g id="ytick_13">
     <g id="line2d_51">
      <path d="M 51.305625 420.434843 
L 704.862813 420.434843 
" clip-path="url(#pe07d832418)" style="fill: none; stroke: #b0b0b0; stroke-opacity: 0.3; stroke-width: 0.8; stroke-linecap: square"/>
     </g>
     <g id="line2d_52">
      <g>
       <use xlink:href="#md530ac4fa4" x="51.305625" y="420.434843" style="stroke: #000000; stroke-width: 0.8"/>
      </g>
     </g>
     <g id="text_26">
      <!-- 0 -->
      <g transform="translate(37.943125 424.233672) scale(0.1 -0.1)">
       <use xlink:href="#DejaVuSans-13"/>
      </g>
     </g>
    </g>
    <g id="ytick_14">
     <g id="line2d_53">
      <path d="M 51.305625 390.75875 
L 704.862813 390.75875 
" clip-path="url(#pe07d832418)" style="fill: none; stroke: #b0b0b0; stroke-opacity: 0.3; stroke-width: 0.8; stroke-linecap: square"/>
     </g>
     <g id="line2d_54">
      <g>
       <use xlink:href="#md530ac4fa4" x="51.305625" y="390.75875" style="stroke: #000000; stroke-width: 0.8"/>
      </g>
     </g>
     <g id="text_27">
      <!-- 10 -->
      <g transform="translate(31.580625 394.557578) scale(0.1 -0.1)">
       <use xlink:href="#DejaVuSans-14"/>
       <use xlink:href="#DejaVuSans-13" transform="translate(63.625 0)"/>
      </g>
     </g>
    </g>
    <g id="ytick_15">
     <g id="line2d_55">
      <path d="M 51.305625 361.082657 
L 704.862813 361.082657 
" clip-path="url(#pe07d832418)" style="fill: none; stroke: #b0b0b0; stroke-opacity: 0.3; stroke-width: 0.8; stroke-linecap: square"/>
     </g>
     <g id="line2d_56">
      <g>
       <use xlink:href="#md530ac4fa4" x="51.305625" y="361.082657" style="stroke: #000000; stroke-width: 0.8"/>
      </g>
     </g>
     <g id="text_28">
      <!-- 20 -->
      <g transform="translate(31.580625 364.881485) scale(0.1 -0.1)">
       <use xlink:href="#DejaVuSans-15"/>
       <use xlink:href="#DejaVuSans-13" transform="translate(63.625 0)"/>
      </g>
     </g>
    </g>
    <g id="ytick_16">
     <g id="line2d_57">
      <path d="M 51.305625 331.406564 
L 704.862813 331.406564 
" clip-path="url(#pe07d832418)" style="fill: none; stroke: #b0b0b0; stroke-opacity: 0.3; stroke-width: 0.8; stroke-linecap: square"/>
     </g>
     <g id="line2d_58">
      <g>
       <use xlink:href="#md530ac4fa4" x="51.305625" y="331.406564" style="stroke: #000000; stroke-width: 0.8"/>
      </g>
     </g>
     <g id="text_29">
      <!-- 30 -->
      <g transform="translate(31.580625 335.205392) scale(0.1 -0.1)">
       <use xlink:href="#DejaVuSans-16"/>
       <use xlink:href="#DejaVuSans-13" transform="translate(63.625 0)"/>
      </g>
     </g>
    </g>
    <g id="ytick_17">
     <g id="line2d_59">
      <path d="M 51.305625 301.730471 
L 704.862813 301.730471 
" clip-path="url(#pe07d832418)" style="fill: none; stroke: #b0b0b0; stroke-opacity: 0.3; stroke-width: 0.8; stroke-linecap: square"/>
     </g>
     <g id="line2d_60">
      <g>
       <use xlink:href="#md530ac4fa4" x="51.305625" y="301.730471" style="stroke: #000000; stroke-width: 0.8"/>
      </g>
     </g>
     <g id="text_30">
      <!-- 40 -->
      <g transform="translate(31.580625 305.529299) scale(0.1 -0.1)">
       <use xlink:href="#DejaVuSans-17"/>
       <use xlink:href="#DejaVuSans-13" transform="translate(63.625 0)"/>
      </g>
     </g>
    </g>
    <g id="text_31">
     <!-- Historical Win % Gain from Timeout (pp) -->
     <g transform="translate(16.318125 535.597275) rotate(-90) scale(0.12 -0.12)">
      <defs>
       <path id="DejaVuSans-2a" d="M 3809 666 
L 3809 1919 
L 2778 1919 
L 2778 2438 
L 4434 2438 
L 4434 434 
Q 4069 175 3628 42 
Q 3188 -91 2688 -91 
Q 1594 -91 976 548 
Q 359 1188 359 2328 
Q 359 3472 976 4111 
Q 1594 4750 2688 4750 
Q 3144 4750 3555 4637 
Q 3966 4525 4313 4306 
L 4313 3634 
Q 3963 3931 3569 4081 
Q 3175 4231 2741 4231 
Q 1884 4231 1454 3753 
Q 1025 3275 1025 2328 
Q 1025 1384 1454 906 
Q 1884 428 2741 428 
Q 3075 428 3337 486 
Q 3600 544 3809 666 
z
" transform="scale(0.015625)"/>
       <path id="DejaVuSans-49" d="M 2375 4863 
L 2375 4384 
L 1825 4384 
Q 1516 4384 1395 4259 
Q 1275 4134 1275 3809 
L 1275 3500 
L 2222 3500 
L 2222 3053 
L 1275 3053 
L 1275 0 
L 697 0 
L 697 3053 
L 147 3053 
L 147 3500 
L 697 3500 
L 697 3744 
Q 697 4328 969 4595 
Q 1241 4863 1831 4863 
L 2375 4863 
z
" transform="scale(0.015625)"/>
       <path id="DejaVuSans-b" d="M 1984 4856 
Q 1566 4138 1362 3434 
Q 1159 2731 1159 2009 
Q 1159 1288 1364 580 
Q 1569 -128 1984 -844 
L 1484 -844 
Q 1016 -109 783 600 
Q 550 1309 550 2009 
Q 550 2706 781 3412 
Q 1013 4119 1484 4856 
L 1984 4856 
z
" transform="scale(0.015625)"/>
       <path id="DejaVuSans-53" d="M 1159 525 
L 1159 -1331 
L 581 -1331 
L 581 3500 
L 1159 3500 
L 1159 2969 
Q 1341 3281 1617 3432 
Q 1894 3584 2278 3584 
Q 2916 3584 3314 3078 
Q 3713 2572 3713 1747 
Q 3713 922 3314 415 
Q 2916 -91 2278 -91 
Q 1894 -91 1617 61 
Q 1341 213 1159 525 
z
M 3116 1747 
Q 3116 2381 2855 2742 
Q 2594 3103 2138 3103 
Q 1681 3103 1420 2742 
Q 1159 2381 1159 1747 
Q 1159 1113 1420 752 
Q 1681 391 2138 391 
Q 2594 391 2855 752 
Q 3116 1113 3116 1747 
z
" transform="scale(0.015625)"/>
       <path id="DejaVuSans-c" d="M 513 4856 
L 1013 4856 
Q 1481 4119 1714 3412 
Q 1947 2706 1947 2009 
Q 1947 1309 1714 600 
Q 1481 -109 1013 -844 
L 513 -844 
Q 928 -128 1133 580 
Q 1338 1288 1338 2009 
Q 1338 2731 1133 3434 
Q 928 4138 513 4856 
z
" transform="scale(0.015625)"/>
      </defs>
      <use xlink:href="#DejaVuSans-2b"/>
      <use xlink:href="#DejaVuSans-4c" transform="translate(75.203125 0)"/>
      <use xlink:href="#DejaVuSans-56" transform="translate(102.984375 0)"/>
      <use xlink:href="#DejaVuSans-57" transform="translate(155.078125 0)"/>
      <use xlink:href="#DejaVuSans-52" transform="translate(194.28125 0)"/>
      <use xlink:href="#DejaVuSans-55" transform="translate(255.46875 0)"/>
      <use xlink:href="#DejaVuSans-4c" transform="translate(296.578125 0)"/>
      <use xlink:href="#DejaVuSans-46" transform="translate(324.359375 0)"/>
      <use xlink:href="#DejaVuSans-44" transform="translate(379.34375 0)"/>
      <use xlink:href="#DejaVuSans-4f" transform="translate(440.625 0)"/>
      <use xlink:href="#DejaVuSans-3" transform="translate(468.40625 0)"/>
      <use xlink:href="#DejaVuSans-3a" transform="translate(500.1875 0)"/>
      <use xlink:href="#DejaVuSans-4c" transform="translate(596.859375 0)"/>
      <use xlink:href="#DejaVuSans-51" transform="translate(624.640625 0)"/>
      <use xlink:href="#DejaVuSans-3" transform="translate(688.015625 0)"/>
      <use xlink:href="#DejaVuSans-8" transform="translate(719.796875 0)"/>
      <use xlink:href="#DejaVuSans-3" transform="translate(814.8125 0)"/>
      <use xlink:href="#DejaVuSans-2a" transform="translate(846.59375 0)"/>
      <use xlink:href="#DejaVuSans-44" transform="translate(924.078125 0)"/>
      <use xlink:href="#DejaVuSans-4c" transform="translate(985.359375 0)"/>
      <use xlink:href="#DejaVuSans-51" transform="translate(1013.140625 0)"/>
      <use xlink:href="#DejaVuSans-3" transform="translate(1076.515625 0)"/>
      <use xlink:href="#DejaVuSans-49" transform="translate(1108.296875 0)"/>
      <use xlink:href="#DejaVuSans-55" transform="translate(1143.5 0)"/>
      <use xlink:href="#DejaVuSans-52" transform="translate(1182.40625 0)"/>
      <use xlink:href="#DejaVuSans-50" transform="translate(1243.59375 0)"/>
      <use xlink:href="#DejaVuSans-3" transform="translate(1341 0)"/>
      <use xlink:href="#DejaVuSans-37" transform="translate(1372.78125 0)"/>
      <use xlink:href="#DejaVuSans-4c" transform="translate(1430.78125 0)"/>
      <use xlink:href="#DejaVuSans-50" transform="translate(1458.5625 0)"/>
      <use xlink:href="#DejaVuSans-48" transform="translate(1555.96875 0)"/>
      <use xlink:href="#DejaVuSans-52" transform="translate(1617.5 0)"/>
      <use xlink:href="#DejaVuSans-58" transform="translate(1678.6875 0)"/>
      <use xlink:href="#DejaVuSans-57" transform="translate(1742.0625 0)"/>
      <use xlink:href="#DejaVuSans-3" transform="translate(1781.265625 0)"/>
      <use xlink:href="#DejaVuSans-b" transform="translate(1813.046875 0)"/>
      <use xlink:href="#DejaVuSans-53" transform="translate(1852.0625 0)"/>
      <use xlink:href="#DejaVuSans-53" transform="translate(1915.546875 0)"/>
      <use xlink:href="#DejaVuSans-c" transform="translate(1979.03125 0)"/>
     </g>
    </g>
   </g>
   <g id="LineCollection_1">
    <path d="M 96.054362 469.667482 
L 96.054362 373.576292 
" clip-path="url(#pe07d832418)" style="fill: none; stroke: #000000"/>
    <path d="M 133.658343 467.679184 
L 133.658343 372.181516 
" clip-path="url(#pe07d832418)" style="fill: none; stroke: #000000"/>
    <path d="M 171.262324 464.44449 
L 171.262324 371.172529 
" clip-path="url(#pe07d832418)" style="fill: none; stroke: #000000"/>
    <path d="M 208.866305 461.536232 
L 208.866305 358.441485 
" clip-path="url(#pe07d832418)" style="fill: none; stroke: #000000"/>
    <path d="M 246.470286 470.231328 
L 246.470286 353.930719 
" clip-path="url(#pe07d832418)" style="fill: none; stroke: #000000"/>
    <path d="M 284.074267 448.894217 
L 284.074267 313.096415 
" clip-path="url(#pe07d832418)" style="fill: none; stroke: #000000"/>
    <path d="M 321.678247 474.08922 
L 321.678247 311.019088 
" clip-path="url(#pe07d832418)" style="fill: none; stroke: #000000"/>
    <path d="M 359.282228 495.930824 
L 359.282228 339.953279 
" clip-path="url(#pe07d832418)" style="fill: none; stroke: #000000"/>
    <path d="M 396.886209 481.6863 
L 396.886209 332.11879 
" clip-path="url(#pe07d832418)" style="fill: none; stroke: #000000"/>
    <path d="M 434.49019 503.527904 
L 434.49019 345.769793 
" clip-path="url(#pe07d832418)" style="fill: none; stroke: #000000"/>
    <path d="M 472.094171 518.009838 
L 472.094171 358.589865 
" clip-path="url(#pe07d832418)" style="fill: none; stroke: #000000"/>
    <path d="M 509.698152 499.521632 
L 509.698152 323.067582 
" clip-path="url(#pe07d832418)" style="fill: none; stroke: #000000"/>
    <path d="M 547.302133 491.568439 
L 547.302133 338.795911 
" clip-path="url(#pe07d832418)" style="fill: none; stroke: #000000"/>
    <path d="M 584.906114 492.577426 
L 584.906114 336.777937 
" clip-path="url(#pe07d832418)" style="fill: none; stroke: #000000"/>
    <path d="M 622.510094 506.169076 
L 622.510094 353.752662 
" clip-path="url(#pe07d832418)" style="fill: none; stroke: #000000"/>
    <path d="M 660.114075 485.573868 
L 660.114075 313.215119 
" clip-path="url(#pe07d832418)" style="fill: none; stroke: #000000"/>
   </g>
   <g id="line2d_61">
    <defs>
     <path id="m5183389114" d="M 3 0 
L -3 -0 
" style="stroke: #000000"/>
    </defs>
    <g clip-path="url(#pe07d832418)">
     <use xlink:href="#m5183389114" x="96.054362" y="469.667482" style="fill: #1f77b4; stroke: #000000"/>
     <use xlink:href="#m5183389114" x="133.658343" y="467.679184" style="fill: #1f77b4; stroke: #000000"/>
     <use xlink:href="#m5183389114" x="171.262324" y="464.44449" style="fill: #1f77b4; stroke: #000000"/>
     <use xlink:href="#m5183389114" x="208.866305" y="461.536232" style="fill: #1f77b4; stroke: #000000"/>
     <use xlink:href="#m5183389114" x="246.470286" y="470.231328" style="fill: #1f77b4; stroke: #000000"/>
     <use xlink:href="#m5183389114" x="284.074267" y="448.894217" style="fill: #1f77b4; stroke: #000000"/>
     <use xlink:href="#m5183389114" x="321.678247" y="474.08922" style="fill: #1f77b4; stroke: #000000"/>
     <use xlink:href="#m5183389114" x="359.282228" y="495.930824" style="fill: #1f77b4; stroke: #000000"/>
     <use xlink:href="#m5183389114" x="396.886209" y="481.6863" style="fill: #1f77b4; stroke: #000000"/>
     <use xlink:href="#m5183389114" x="434.49019" y="503.527904" style="fill: #1f77b4; stroke: #000000"/>
     <use xlink:href="#m5183389114" x="472.094171" y="518.009838" style="fill: #1f77b4; stroke: #000000"/>
     <use xlink:href="#m5183389114" x="509.698152" y="499.521632" style="fill: #1f77b4; stroke: #000000"/>
     <use xlink:href="#m5183389114" x="547.302133" y="491.568439" style="fill: #1f77b4; stroke: #000000"/>
     <use xlink:href="#m5183389114" x="584.906114" y="492.577426" style="fill: #1f77b4; stroke: #000000"/>
     <use xlink:href="#m5183389114" x="622.510094" y="506.169076" style="fill: #1f77b4; stroke: #000000"/>
     <use xlink:href="#m5183389114" x="660.114075" y="485.573868" style="fill: #1f77b4; stroke: #000000"/>
    </g>
   </g>
   <g id="line2d_62">
    <g clip-path="url(#pe07d832418)">
     <use xlink:href="#m5183389114" x="96.054362" y="373.576292" style="fill: #1f77b4; stroke: #000000"/>
     <use xlink:href="#m5183389114" x="133.658343" y="372.181516" style="fill: #1f77b4; stroke: #000000"/>
     <use xlink:href="#m5183389114" x="171.262324" y="371.172529" style="fill: #1f77b4; stroke: #000000"/>
     <use xlink:href="#m5183389114" x="208.866305" y="358.441485" style="fill: #1f77b4; stroke: #000000"/>
     <use xlink:href="#m5183389114" x="246.470286" y="353.930719" style="fill: #1f77b4; stroke: #000000"/>
     <use xlink:href="#m5183389114" x="284.074267" y="313.096415" style="fill: #1f77b4; stroke: #000000"/>
     <use xlink:href="#m5183389114" x="321.678247" y="311.019088" style="fill: #1f77b4; stroke: #000000"/>
     <use xlink:href="#m5183389114" x="359.282228" y="339.953279" style="fill: #1f77b4; stroke: #000000"/>
     <use xlink:href="#m5183389114" x="396.886209" y="332.11879" style="fill: #1f77b4; stroke: #000000"/>
     <use xlink:href="#m5183389114" x="434.49019" y="345.769793" style="fill: #1f77b4; stroke: #000000"/>
     <use xlink:href="#m5183389114" x="472.094171" y="358.589865" style="fill: #1f77b4; stroke: #000000"/>
     <use xlink:href="#m5183389114" x="509.698152" y="323.067582" style="fill: #1f77b4; stroke: #000000"/>
     <use xlink:href="#m5183389114" x="547.302133" y="338.795911" style="fill: #1f77b4; stroke: #000000"/>
     <use xlink:href="#m5183389114" x="584.906114" y="336.777937" style="fill: #1f77b4; stroke: #000000"/>
     <use xlink:href="#m5183389114" x="622.510094" y="353.752662" style="fill: #1f77b4; stroke: #000000"/>
     <use xlink:href="#m5183389114" x="660.114075" y="313.215119" style="fill: #1f77b4; stroke: #000000"/>
    </g>
   </g>
   <g id="line2d_63">
    <path d="M 51.305625 420.434843 
L 704.862813 420.434843 
" clip-path="url(#pe07d832418)" style="fill: none; stroke: #000000; stroke-linecap: square"/>
   </g>
   <g id="patch_26">
    <path d="M 51.305625 528.359375 
L 51.305625 300.669551 
" style="fill: none; stroke: #000000; stroke-width: 0.8; stroke-linejoin: miter; stroke-linecap: square"/>
   </g>
   <g id="patch_27">
    <path d="M 704.862813 528.359375 
L 704.862813 300.669551 
" style="fill: none; stroke: #000000; stroke-width: 0.8; stroke-linejoin: miter; stroke-linecap: square"/>
   </g>
   <g id="patch_28">
    <path d="M 51.305625 528.359375 
L 704.862813 528.359375 
" style="fill: none; stroke: #000000; stroke-width: 0.8; stroke-linejoin: miter; stroke-linecap: square"/>
   </g>
   <g id="patch_29">
    <path d="M 51.305625 300.669551 
L 704.862813 300.669551 
" style="fill: none; stroke: #000000; stroke-width: 0.8; stroke-linejoin: miter; stroke-linecap: square"/>
   </g>
   <g id="text_32">
    <!-- Win % Gain: Timeout - Play On  (green = timeout is better) -->
    <g transform="translate(171.632344 294.669551) scale(0.14 -0.14)">
     <defs>
      <path id="DejaVuSans-1d" d="M 750 794 
L 1409 794 
L 1409 0 
L 750 0 
L 750 794 
z
M 750 3309 
L 1409 3309 
L 1409 2516 
L 750 2516 
L 750 3309 
z
" transform="scale(0.015625)"/>
      <path id="DejaVuSans-20" d="M 678 2906 
L 4684 2906 
L 4684 2381 
L 678 2381 
L 678 2906 
z
M 678 1631 
L 4684 1631 
L 4684 1100 
L 678 1100 
L 678 1631 
z
" transform="scale(0.015625)"/>
      <path id="DejaVuSans-45" d="M 3116 1747 
Q 3116 2381 2855 2742 
Q 2594 3103 2138 3103 
Q 1681 3103 1420 2742 
Q 1159 2381 1159 1747 
Q 1159 1113 1420 752 
Q 1681 391 2138 391 
Q 2594 391 2855 752 
Q 3116 1113 3116 1747 
z
M 1159 2969 
Q 1341 3281 1617 3432 
Q 1894 3584 2278 3584 
Q 2916 3584 3314 3078 
Q 3713 2572 3713 1747 
Q 3713 922 3314 415 
Q 2916 -91 2278 -91 
Q 1894 -91 1617 61 
Q 1341 213 1159 525 
L 1159 0 
L 581 0 
L 581 4863 
L 1159 4863 
L 1159 2969 
z
" transform="scale(0.015625)"/>
     </defs>
     <use xlink:href="#DejaVuSans-3a"/>
     <use xlink:href="#DejaVuSans-4c" transform="translate(96.671875 0)"/>
     <use xlink:href="#DejaVuSans-51" transform="translate(124.453125 0)"/>
     <use xlink:href="#DejaVuSans-3" transform="translate(187.828125 0)"/>
     <use xlink:href="#DejaVuSans-8" transform="translate(219.609375 0)"/>
     <use xlink:href="#DejaVuSans-3" transform="translate(314.625 0)"/>
     <use xlink:href="#DejaVuSans-2a" transform="translate(346.40625 0)"/>
     <use xlink:href="#DejaVuSans-44" transform="translate(423.890625 0)"/>
     <use xlink:href="#DejaVuSans-4c" transform="translate(485.171875 0)"/>
     <use xlink:href="#DejaVuSans-51" transform="translate(512.953125 0)"/>
     <use xlink:href="#DejaVuSans-1d" transform="translate(576.328125 0)"/>
     <use xlink:href="#DejaVuSans-3" transform="translate(610.015625 0)"/>
     <use xlink:href="#DejaVuSans-37" transform="translate(641.796875 0)"/>
     <use xlink:href="#DejaVuSans-4c" transform="translate(699.796875 0)"/>
     <use xlink:href="#DejaVuSans-50" transform="translate(727.578125 0)"/>
     <use xlink:href="#DejaVuSans-48" transform="translate(824.984375 0)"/>
     <use xlink:href="#DejaVuSans-52" transform="translate(886.515625 0)"/>
     <use xlink:href="#DejaVuSans-58" transform="translate(947.703125 0)"/>
     <use xlink:href="#DejaVuSans-57" transform="translate(1011.078125 0)"/>
     <use xlink:href="#DejaVuSans-3" transform="translate(1050.28125 0)"/>
     <use xlink:href="#DejaVuSans-10" transform="translate(1082.0625 0)"/>
     <use xlink:href="#DejaVuSans-3" transform="translate(1118.140625 0)"/>
     <use xlink:href="#DejaVuSans-33" transform="translate(1149.921875 0)"/>
     <use xlink:href="#DejaVuSans-4f" transform="translate(1210.21875 0)"/>
     <use xlink:href="#DejaVuSans-44" transform="translate(1238 0)"/>
     <use xlink:href="#DejaVuSans-5c" transform="translate(1299.28125 0)"/>
     <use xlink:href="#DejaVuSans-3" transform="translate(1358.46875 0)"/>
     <use xlink:href="#DejaVuSans-32" transform="translate(1390.25 0)"/>
     <use xlink:href="#DejaVuSans-51" transform="translate(1468.96875 0)"/>
     <use xlink:href="#DejaVuSans-3" transform="translate(1532.34375 0)"/>
     <use xlink:href="#DejaVuSans-3" transform="translate(1564.125 0)"/>
     <use xlink:href="#DejaVuSans-b" transform="translate(1595.90625 0)"/>
     <use xlink:href="#DejaVuSans-4a" transform="translate(1634.921875 0)"/>
     <use xlink:href="#DejaVuSans-55" transform="translate(1698.40625 0)"/>
     <use xlink:href="#DejaVuSans-48" transform="translate(1737.3125 0)"/>
     <use xlink:href="#DejaVuSans-48" transform="translate(1798.84375 0)"/>
     <use xlink:href="#DejaVuSans-51" transform="translate(1860.375 0)"/>
     <use xlink:href="#DejaVuSans-3" transform="translate(1923.75 0)"/>
     <use xlink:href="#DejaVuSans-20" transform="translate(1955.53125 0)"/>
     <use xlink:href="#DejaVuSans-3" transform="translate(2039.328125 0)"/>
     <use xlink:href="#DejaVuSans-57" transform="translate(2071.109375 0)"/>
     <use xlink:href="#DejaVuSans-4c" transform="translate(2110.3125 0)"/>
     <use xlink:href="#DejaVuSans-50" transform="translate(2138.09375 0)"/>
     <use xlink:href="#DejaVuSans-48" transform="translate(2235.5 0)"/>
     <use xlink:href="#DejaVuSans-52" transform="translate(2297.03125 0)"/>
     <use xlink:href="#DejaVuSans-58" transform="translate(2358.21875 0)"/>
     <use xlink:href="#DejaVuSans-57" transform="translate(2421.59375 0)"/>
     <use xlink:href="#DejaVuSans-3" transform="translate(2460.796875 0)"/>
     <use xlink:href="#DejaVuSans-4c" transform="translate(2492.578125 0)"/>
     <use xlink:href="#DejaVuSans-56" transform="translate(2520.359375 0)"/>
     <use xlink:href="#DejaVuSans-3" transform="translate(2572.453125 0)"/>
     <use xlink:href="#DejaVuSans-45" transform="translate(2604.234375 0)"/>
     <use xlink:href="#DejaVuSans-48" transform="translate(2667.71875 0)"/>
     <use xlink:href="#DejaVuSans-57" transform="translate(2729.25 0)"/>
     <use xlink:href="#DejaVuSans-57" transform="translate(2768.453125 0)"/>
     <use xlink:href="#DejaVuSans-48" transform="translate(2807.65625 0)"/>
     <use xlink:href="#DejaVuSans-55" transform="translate(2869.1875 0)"/>
     <use xlink:href="#DejaVuSans-c" transform="translate(2910.296875 0)"/>
    </g>
   </g>
  </g>
 </g>
 <defs>
  <clipPath id="pc789557f9d">
   <rect x="51.305625" y="42.043008" width="653.557188" height="227.689824"/>
  </clipPath>
  <clipPath id="pe07d832418">
   <rect x="51.305625" y="300.669551" width="653.557188" height="227.689824"/>
  </clipPath>
 </defs>
</svg>
